/* XPM */
static char * icon_xpm[] = {
"40 40 424 2",
"  	c None",
". 	c #020202",
"+ 	c #020D0A",
"@ 	c #020403",
"# 	c #020D0B",
"$ 	c #021310",
"% 	c #020605",
"& 	c #02231F",
"* 	c #022F28",
"= 	c #022E28",
"- 	c #021613",
"; 	c #021F1B",
"> 	c #02A89B",
", 	c #02ABA1",
"' 	c #02201D",
") 	c #024940",
"! 	c #02493F",
"~ 	c #020E0C",
"{ 	c #02322B",
"] 	c #020707",
"^ 	c #022D28",
"/ 	c #02E8DA",
"( 	c #02CCC0",
"_ 	c #022421",
": 	c #000000",
"< 	c #010101",
"[ 	c #021916",
"} 	c #011A16",
"| 	c #025F50",
"1 	c #027F69",
"2 	c #022E29",
"3 	c #02EFDD",
"4 	c #02BBB2",
"5 	c #021E1C",
"6 	c #022E2B",
"7 	c #02C9B8",
"8 	c #027B6E",
"9 	c #000B0A",
"0 	c #022D29",
"a 	c #02F1E0",
"b 	c #02A59A",
"c 	c #011816",
"d 	c #02534A",
"e 	c #02E9D4",
"f 	c #02675C",
"g 	c #000807",
"h 	c #02453D",
"i 	c #02F6DF",
"j 	c #029B8A",
"k 	c #001613",
"l 	c #020C09",
"m 	c #020A08",
"n 	c #026F67",
"o 	c #02CFC2",
"p 	c #02463D",
"q 	c #000303",
"r 	c #021513",
"s 	c #022822",
"t 	c #027F73",
"u 	c #02ECEE",
"v 	c #029182",
"w 	c #001311",
"x 	c #020C0B",
"y 	c #02917D",
"z 	c #023029",
"A 	c #025653",
"B 	c #02CCC3",
"C 	c #013F38",
"D 	c #02443C",
"E 	c #029684",
"F 	c #021C18",
"G 	c #02564C",
"H 	c #02BCBA",
"I 	c #02E3E7",
"J 	c #028070",
"K 	c #01100D",
"L 	c #026E61",
"M 	c #02C4AE",
"N 	c #02352D",
"O 	c #023C37",
"P 	c #02B8A6",
"Q 	c #024C42",
"R 	c #000605",
"S 	c #022520",
"T 	c #02A18D",
"U 	c #02CBBD",
"V 	c #02D6DB",
"W 	c #02D7F5",
"X 	c #02DFE9",
"Y 	c #028071",
"Z 	c #000F0D",
"` 	c #02A697",
" .	c #02AC97",
"..	c #022C25",
"+.	c #02110F",
"@.	c #026458",
"#.	c #025349",
"$.	c #000806",
"%.	c #024035",
"&.	c #02B9AE",
"*.	c #02D9EC",
"=.	c #02CCFB",
"-.	c #02DDF2",
";.	c #02998E",
">.	c #011614",
",.	c #02C6B7",
"'.	c #02574D",
").	c #012722",
"!.	c #021915",
"~.	c #024D44",
"{.	c #026E5F",
"].	c #02D6DA",
"^.	c #02D0FB",
"/.	c #02CBFD",
"(.	c #02CCDC",
"_.	c #027D70",
":.	c #024E45",
"<.	c #02665A",
"[.	c #02ABA2",
"}.	c #02C9BA",
"|.	c #02241E",
"1.	c #02968D",
"2.	c #02685B",
"3.	c #023A33",
"4.	c #02332E",
"5.	c #02AD9B",
"6.	c #02DDE7",
"7.	c #02C1FD",
"8.	c #02B1FE",
"9.	c #02C4FA",
"0.	c #02CDD7",
"a.	c #02C1C3",
"b.	c #02CBCE",
"c.	c #02E0E4",
"d.	c #027369",
"e.	c #020C0A",
"f.	c #020504",
"g.	c #025046",
"h.	c #02D1C2",
"i.	c #02E4DC",
"j.	c #02DED0",
"k.	c #02D2CD",
"l.	c #02D6F4",
"m.	c #02BDFB",
"n.	c #02A6FE",
"o.	c #02A8FE",
"p.	c #02B8FE",
"q.	c #02CEFB",
"r.	c #02D1D6",
"s.	c #023F3C",
"t.	c #020F0C",
"u.	c #025449",
"v.	c #020F0D",
"w.	c #02B19F",
"x.	c #02D3D0",
"y.	c #098D7F",
"z.	c #05463D",
"A.	c #02BFB2",
"B.	c #02CCE7",
"C.	c #02B2FE",
"D.	c #02A5FE",
"E.	c #02AAFE",
"F.	c #02B4FE",
"G.	c #02CFFA",
"H.	c #02C4BE",
"I.	c #02322D",
"J.	c #02463E",
"K.	c #02B09C",
"L.	c #02362E",
"M.	c #010D0B",
"N.	c #02A997",
"O.	c #021F1C",
"P.	c #029E8F",
"Q.	c #02B7AB",
"R.	c #3D4339",
"S.	c #540B09",
"T.	c #048574",
"U.	c #02C5CE",
"V.	c #02AFFE",
"W.	c #02B2FD",
"X.	c #02C7FB",
"Y.	c #02CFFC",
"Z.	c #02D2DE",
"`.	c #029083",
" +	c #02C8C6",
".+	c #02DBD7",
"++	c #025143",
"@+	c #010B0A",
"#+	c #021D17",
"$+	c #028A7F",
"%+	c #02D9D8",
"&+	c #02AAA6",
"*+	c #02C6C0",
"=+	c #02D2CF",
"-+	c #0AA99C",
";+	c #0C928B",
">+	c #02CECF",
",+	c #02CAEC",
"'+	c #02B7FE",
")+	c #02DCF6",
"!+	c #02C2C4",
"~+	c #02C1C2",
"{+	c #02DDEC",
"]+	c #02CCE4",
"^+	c #02D2F2",
"/+	c #02D7DA",
"(+	c #02443B",
"_+	c #010A08",
":+	c #027E73",
"<+	c #02E6CF",
"[+	c #02EDD8",
"}+	c #02EAD0",
"|+	c #02E9D0",
"1+	c #02EBCF",
"2+	c #02E6E7",
"3+	c #02D0FC",
"4+	c #02B9FD",
"5+	c #02CCF8",
"6+	c #02BDB3",
"7+	c #02312B",
"8+	c #022821",
"9+	c #02C6E6",
"0+	c #02CEFD",
"a+	c #02D4D7",
"b+	c #021814",
"c+	c #000101",
"d+	c #02665C",
"e+	c #02DECD",
"f+	c #02DDE5",
"g+	c #02DCE1",
"h+	c #02E0DA",
"i+	c #02E1DE",
"j+	c #02D3F6",
"k+	c #02B5FE",
"l+	c #02ABFE",
"m+	c #02B9FE",
"n+	c #02D5F6",
"o+	c #02978D",
"p+	c #400F0C",
"q+	c #511614",
"r+	c #02847B",
"s+	c #02DCFB",
"t+	c #02B6A5",
"u+	c #025348",
"v+	c #02C7C1",
"w+	c #02CAF9",
"x+	c #02C2FE",
"y+	c #02C1FE",
"z+	c #02C5FC",
"A+	c #02B4FD",
"B+	c #0297FE",
"C+	c #02C7F7",
"D+	c #02CEC8",
"E+	c #0E574A",
"F+	c #155248",
"G+	c #02C1BC",
"H+	c #02D2F3",
"I+	c #02EFF2",
"J+	c #026659",
"K+	c #028C87",
"L+	c #02CBF5",
"M+	c #02BDFE",
"N+	c #029AFE",
"O+	c #027EFE",
"P+	c #0286FE",
"Q+	c #029CFE",
"R+	c #02D4F6",
"S+	c #02C6C7",
"T+	c #02BFBB",
"U+	c #02D6F1",
"V+	c #02DDF6",
"W+	c #02C9C6",
"X+	c #02362F",
"Y+	c #02302A",
"Z+	c #02DBD2",
"`+	c #02D0F7",
" @	c #02B7FB",
".@	c #02A3FE",
"+@	c #0293FE",
"@@	c #0287FE",
"#@	c #0283FE",
"$@	c #0294FE",
"%@	c #02C3FD",
"&@	c #02C9FE",
"*@	c #02CAFC",
"=@	c #02E5E7",
"-@	c #010605",
";@	c #020706",
">@	c #026B60",
",@	c #02C8C8",
"'@	c #02C9EA",
")@	c #02B7F2",
"!@	c #02ACFE",
"~@	c #029DFE",
"{@	c #0299FE",
"]@	c #02A7FE",
"^@	c #02B3FE",
"/@	c #02BCFE",
"(@	c #02D2F7",
"_@	c #02A29D",
":@	c #021C17",
"<@	c #021B17",
"[@	c #02A197",
"}@	c #02DEED",
"|@	c #02CFF6",
"1@	c #02C4FC",
"2@	c #02BBFD",
"3@	c #02B8FD",
"4@	c #02BBFE",
"5@	c #02D3FA",
"6@	c #02CECD",
"7@	c #023C36",
"8@	c #022923",
"9@	c #02675F",
"0@	c #029F9F",
"a@	c #02D6D9",
"b@	c #02E6ED",
"c@	c #02E3F4",
"d@	c #02E4F7",
"e@	c #02524E",
"f@	c #02100E",
"g@	c #252525",
"h@	c #2B2B2B",
"i@	c #2A2A2A",
"j@	c #242424",
"k@	c #090909",
"l@	c #021410",
"m@	c #02322A",
"n@	c #024A41",
"o@	c #026055",
"p@	c #026056",
"q@	c #02453F",
"r@	c #02352E",
"s@	c #021612",
"t@	c #050505",
"u@	c #1F1F1F",
"v@	c #393939",
"w@	c #404040",
"x@	c #313131",
"y@	c #0F0F0F",
"z@	c #B4B4B4",
"A@	c #D4D4D4",
"B@	c #B2B2B2",
"C@	c #000202",
"D@	c #000504",
"E@	c #010705",
"F@	c #010202",
"G@	c #070707",
"H@	c #5B5B5B",
"I@	c #BDBDBD",
"J@	c #F2F2F2",
"K@	c #FFFFFF",
"L@	c #E2E2E2",
"M@	c #929292",
"N@	c #151515",
"O@	c #A2A2A2",
"P@	c #C3C3C3",
"Q@	c #D6D6D6",
"R@	c #343434",
"S@	c #141414",
"T@	c #2F2F2F",
"U@	c #080808",
"V@	c #484848",
"W@	c #D9D9D9",
"X@	c #FEFEFE",
"Y@	c #B9B9B9",
"Z@	c #8C8C8C",
"`@	c #FAFAFA",
" #	c #A1A1A1",
".#	c #525252",
"+#	c #BCBCBC",
"@#	c #212121",
"##	c #838383",
"$#	c #CDCDCD",
"%#	c #585858",
"&#	c #E8E8E8",
"*#	c #303030",
"=#	c #111111",
"-#	c #878787",
";#	c #D3D3D3",
">#	c #202020",
",#	c #555555",
"'#	c #D2D2D2",
")#	c #6B6B6B",
"!#	c #030303",
"~#	c #1B1B1B",
"{#	c #575757",
"]#	c #4E4E4E",
"^#	c #EAEAEA",
"/#	c #F1F1F1",
"(#	c #F9F9F9",
"_#	c #EDEDED",
":#	c #E3E3E3",
"<#	c #272727",
"[#	c #FDFDFD",
"}#	c #AFAFAF",
"|#	c #060606",
"1#	c #AAAAAA",
"2#	c #C5C5C5",
"3#	c #EFEFEF",
"4#	c #BABABA",
"5#	c #A5A5A5",
"6#	c #C4C4C4",
"7#	c #C1C1C1",
"8#	c #0A0A0A",
"9#	c #B3B3B3",
"0#	c #232323",
"a#	c #5F5F5F",
"b#	c #FBFBFB",
"c#	c #AEAEAE",
"d#	c #292929",
"e#	c #3D3D3D",
"f#	c #BFBFBF",
"g#	c #8D8D8D",
"h#	c #191919",
"i#	c #5E5E5E",
"j#	c #E0E0E0",
"k#	c #E1E1E1",
"l#	c #5D5D5D",
"m#	c #121212",
"n#	c #0C0C0C",
"o#	c #A0A0A0",
"p#	c #7A7A7A",
"q#	c #363636",
"                                      . .           .                           ",
"                                +     @ # $ %     & *                           ",
"                                = -   ; > , '     ) !                           ",
"                      ~ { ]           ^ / ( _ : < [ }                           ",
"                      | 1             2 3 4 5 :                                 ",
"                    6 7 8 9           0 a b c :       .                         ",
"                    d e f g           h i j k :     . l m                       ",
"                    n o p q   r s   . t u v w :     x y z                       ",
"                    A B C : : D E F G H I J K :     L M N                       ",
"                    O P Q R   S T U V W X Y Z :   . `  ...:                     ",
"                    +.@.#.$.    %.&.*.=.-.;.>.< @ ^ ,.'.).:                     ",
"                      !.~.~ . < . {.].^./.(._.:.<.[.}.S : :                     ",
"                      . |.1.2.3.4.5.6.7.8.9.0.a.b.c.d.e.f.:                     ",
"                        < g.h.i.j.k.l.m.n.o.p.7.q.r.s.t.u.v.                    ",
"                        . f.w.x.y.z.A.B.C.D.E.F.G.H.I.J.K.L.M.                  ",
"                      g.N.O.P.Q.R.S.T.U.7.V.W.X.Y.Z.`. +.+++@+                  ",
"                    #+$+%+&+*+=+-+;+>+,+8.'+)+!+~+{+]+^+/+(+_+                  ",
"                      :+<+[+}+|+1+2+3+4+'+5+6+7+8+`.9+0+a+b+c+:                 ",
"                      d+e+f+g+h+i+j+k+l+m+n+o+p+q+r+9+s+t+. :                   ",
"                      u+v+w+x+y+z+A+B+B+V.C+D+E+F+G+H+I+J+. :                   ",
"                      ; K+L+M+V.o.N+O+P+Q+C.R+S+T+U+V+W+X+: :                   ",
"                        Y+Z+`+ @.@+@@@#@@@$@8.%@&@*@=@) -@:                     ",
"                        ;@>@,@'@)@!@~@Q+{@N+]@^@/@(@_@:@: :                     ",
"                          . <@[@}@|@1@2@p.3@4@1@5@6@7@: :                       ",
"                            f.8@9@0@a@b@c@c@d@a@0@e@f@: :                       ",
"              : g@h@i@j@k@:     @ l@m@n@o@p@q@r@s@: t@u@v@w@x@y@<               ",
"              : z@A@A@B@h@:         : C@D@E@F@: : G@H@I@J@K@L@M@N@:             ",
"              : O@P@K@Q@R@:       : S@w@T@U@: : : V@W@X@Y@Z@Q@`@ #: :           ",
"              : : y@K@Q@R@:       : .#K@+#@#:   G@##K@$#: : %#&#K@*#:           ",
"                : y@K@Q@R@:       : .#K@+#@#:   =#-#A@%#: : T@;#K@V@:           ",
"                  y@K@Q@R@:   >#,#,#Z@K@'#)#,#.#!#~#i@=#: : {#&#K@*#:           ",
"                  y@K@Q@R@:   ]#^#^#/#K@(#_#^#:#: : : : : <#I@[#}#|#:           ",
"                  y@K@Q@R@:   v@1#1#2#K@3#4#1#5#: :   : y@6#K@7#8#: :           ",
"                  y@K@Q@R@:   : : : .#K@+#@#: : : : U@R@2#(#9#0#: :             ",
"                  y@K@Q@R@:     : : .#K@+#@#: : : U@a#:#b#c#d#: : :             ",
"                  y@K@Q@R@:       : e#f#g#h#:   U@i#j#X@k#l#w@w@w@m#:           ",
"                  y@K@Q@R@:       : : : : : :   N@O@K@K@K@K@K@K@K@V@:           ",
"                  n#f#o#<#:           : : :     y@p#f#f#f#f#f#f#f#q#:           ",
"                  : : : : :                     : : : : : : : : : : :           ",
"                                                                                "};
