/* XPM */
static char * icon_xpm[] = {
"32 32 337 2",
"  	c None",
". 	c #020202",
"+ 	c #020504",
"@ 	c #020B0A",
"# 	c #021915",
"$ 	c #020F0D",
"% 	c #024C46",
"& 	c #023632",
"* 	c #02342D",
"= 	c #023931",
"- 	c #021C18",
"; 	c #021815",
"> 	c #022723",
", 	c #02CBBE",
"' 	c #028078",
") 	c #011211",
"! 	c #010101",
"~ 	c #022C27",
"{ 	c #012D26",
"] 	c #025C4D",
"^ 	c #025749",
"/ 	c #022E29",
"( 	c #02E4D4",
"_ 	c #027F78",
": 	c #010C0C",
"< 	c #02544D",
"[ 	c #02AC9C",
"} 	c #013630",
"| 	c #02322D",
"1 	c #02E2D1",
"2 	c #026B63",
"3 	c #000909",
"4 	c #020403",
"5 	c #02786D",
"6 	c #02A99B",
"7 	c #012823",
"8 	c #02544B",
"9 	c #02E0D2",
"0 	c #016358",
"a 	c #000807",
"b 	c #021E1A",
"c 	c #022923",
"d 	c #027670",
"e 	c #02958C",
"f 	c #011B18",
"g 	c #000000",
"h 	c #023D35",
"i 	c #025449",
"j 	c #022D28",
"k 	c #028D87",
"l 	c #02D3D3",
"m 	c #01584D",
"n 	c #000706",
"o 	c #027163",
"p 	c #026558",
"q 	c #025A53",
"r 	c #028E81",
"s 	c #01201C",
"t 	c #02423A",
"u 	c #02A292",
"v 	c #02B4B1",
"w 	c #02CDE1",
"x 	c #02CDD1",
"y 	c #015349",
"z 	c #000605",
"A 	c #022623",
"B 	c #02A492",
"C 	c #026255",
"D 	c #000B09",
"E 	c #02211D",
"F 	c #02544A",
"G 	c #012621",
"H 	c #026359",
"I 	c #02C6CB",
"J 	c #02CFF7",
"K 	c #02CFE3",
"L 	c #02736E",
"M 	c #021613",
"N 	c #026058",
"O 	c #029689",
"P 	c #01322C",
"Q 	c #02221D",
"R 	c #02413B",
"S 	c #02302B",
"T 	c #021715",
"U 	c #02433B",
"V 	c #02B8B6",
"W 	c #02CDF6",
"X 	c #02C2F9",
"Y 	c #02B7C8",
"Z 	c #028985",
"` 	c #028B85",
" .	c #02BBB5",
"..	c #026F65",
"+.	c #010C0A",
"@.	c #020A09",
"#.	c #024740",
"$.	c #029B8E",
"%.	c #029F97",
"&.	c #02AAA0",
"*.	c #02D0D9",
"=.	c #02C4F9",
"-.	c #02ACFE",
";.	c #02B8F7",
">.	c #02C1E9",
",.	c #02CAE8",
"'.	c #02BDBF",
").	c #023833",
"!.	c #022520",
"~.	c #01120F",
"{.	c #020D0B",
"].	c #029788",
"^.	c #03CBC5",
"/.	c #06867A",
"(.	c #039D97",
"_.	c #02C8E2",
":.	c #02AEFE",
"<.	c #02A8FE",
"[.	c #02B3FE",
"}.	c #02CAFB",
"|.	c #02A9A5",
"1.	c #023732",
"2.	c #027668",
"3.	c #02443B",
"4.	c #010D0B",
"5.	c #027E72",
"6.	c #029185",
"7.	c #0CA89E",
"8.	c #3A443C",
"9.	c #1E685F",
"0.	c #02BCC4",
"a.	c #02BBFD",
"b.	c #02B5FD",
"c.	c #02C1F5",
"d.	c #02CBF0",
"e.	c #02C9D2",
"f.	c #02AEAD",
"g.	c #02D4D4",
"h.	c #026A5F",
"i.	c #010B0A",
"j.	c #023C34",
"k.	c #02A99E",
"l.	c #02CFC5",
"m.	c #02D1C4",
"n.	c #03D6C9",
"o.	c #07BDB0",
"p.	c #04C4CD",
"q.	c #02C6EF",
"r.	c #02B6FE",
"s.	c #02A5A9",
"t.	c #028583",
"u.	c #02C0C9",
"v.	c #02CCEC",
"w.	c #02D4E5",
"x.	c #02534E",
"y.	c #010605",
"z.	c #029D8F",
"A.	c #02E3D9",
"B.	c #02E2DB",
"C.	c #02E4D6",
"D.	c #02E1E2",
"E.	c #02CBF8",
"F.	c #02B4FE",
"G.	c #02BDFD",
"H.	c #02C0D3",
"I.	c #18544D",
"J.	c #2F1D19",
"K.	c #029593",
"L.	c #02CDEF",
"M.	c #02CAD4",
"N.	c #022F2C",
"O.	c #02867C",
"P.	c #02C9F8",
"Q.	c #02C8F7",
"R.	c #02C4F8",
"S.	c #02A9FD",
"T.	c #029BFE",
"U.	c #02B6FD",
"V.	c #02C7DF",
"W.	c #0F7A70",
"X.	c #1F473E",
"Y.	c #02BABC",
"Z.	c #02DBF2",
"`.	c #02A5A0",
" +	c #021916",
".+	c #024844",
"++	c #02ACBD",
"@+	c #02C3FA",
"#+	c #02AFFE",
"$+	c #02A1FE",
"%+	c #028AFE",
"&+	c #0284FE",
"*+	c #029CFE",
"=+	c #02B9FB",
"-+	c #02C8E1",
";+	c #02C2CA",
">+	c #02D6F3",
",+	c #02CCD6",
"'+	c #02615C",
")+	c #000908",
"!+	c #02756E",
"~+	c #02C7D7",
"{+	c #02BAF5",
"]+	c #02A5FB",
"^+	c #0295FE",
"/+	c #028EFE",
"(+	c #0290FE",
"_+	c #029FFE",
":+	c #02C2FE",
"<+	c #02CDF0",
"[+	c #028F8C",
"}+	c #011815",
"|+	c #000101",
"1+	c #022421",
"2+	c #025653",
"3+	c #02B7C3",
"4+	c #02C9F3",
"5+	c #02B0FD",
"6+	c #02B9FD",
"7+	c #02C7FC",
"8+	c #02BAC4",
"9+	c #02413D",
"0+	c #000404",
"a+	c #020908",
"b+	c #024D47",
"c+	c #029091",
"d+	c #02C2CD",
"e+	c #02DBED",
"f+	c #02DAF6",
"g+	c #02DBF7",
"h+	c #02D6EA",
"i+	c #02B2BB",
"j+	c #025A57",
"k+	c #010F0D",
"l+	c #272727",
"m+	c #4B4B4B",
"n+	c #4A4A4A",
"o+	c #2D2D2D",
"p+	c #060606",
"q+	c #020A08",
"r+	c #02211B",
"s+	c #023831",
"t+	c #024E45",
"u+	c #02453E",
"v+	c #02302A",
"w+	c #021713",
"x+	c #262626",
"y+	c #515151",
"z+	c #656565",
"A+	c #4C4C4C",
"B+	c #1B1B1B",
"C+	c #040404",
"D+	c #686868",
"E+	c #C7C7C7",
"F+	c #DEDEDE",
"G+	c #868686",
"H+	c #131313",
"I+	c #161717",
"J+	c #101312",
"K+	c #030504",
"L+	c #373737",
"M+	c #ABABAB",
"N+	c #DADADA",
"O+	c #D3D3D3",
"P+	c #D6D6D6",
"Q+	c #8F8F8F",
"R+	c #1F1F1F",
"S+	c #535353",
"T+	c #F7F7F7",
"U+	c #959595",
"V+	c #151515",
"W+	c #222222",
"X+	c #9A9A9A",
"Y+	c #6E6E6E",
"Z+	c #0E0E0E",
"`+	c #EAEAEA",
" @	c #3C3C3C",
".@	c #9F9F9F",
"+@	c #E6E6E6",
"@@	c #0C0C0C",
"#@	c #313131",
"$@	c #DCDCDC",
"%@	c #9D9D9D",
"&@	c #141414",
"*@	c #0F0F0F",
"=@	c #979797",
"-@	c #B1B1B1",
";@	c #575757",
">@	c #E7E7E7",
",@	c #8E8E8E",
"'@	c #0D0D0D",
")@	c #383838",
"!@	c #737373",
"~@	c #ECECEC",
"{@	c #C9C9C9",
"]@	c #7E7E7E",
"^@	c #717171",
"/@	c #181818",
"(@	c #1A1A1A",
"_@	c #050505",
":@	c #858585",
"<@	c #EDEDED",
"[@	c #777777",
"}@	c #080808",
"|@	c #616161",
"1@	c #D0D0D0",
"2@	c #D9D9D9",
"3@	c #F9F9F9",
"4@	c #EFEFEF",
"5@	c #D5D5D5",
"6@	c #CDCDCD",
"7@	c #282828",
"8@	c #B5B5B5",
"9@	c #2E2E2E",
"0@	c #202020",
"a@	c #444444",
"b@	c #BABABA",
"c@	c #545454",
"d@	c #434343",
"e@	c #CFCFCF",
"f@	c #BBBBBB",
"g@	c #3D3D3D",
"h@	c #7B7B7B",
"i@	c #DDDDDD",
"j@	c #1D1D1D",
"k@	c #848484",
"l@	c #5E5E5E",
"m@	c #0B0B0B",
"n@	c #F0F0F0",
"o@	c #939393",
"p@	c #666666",
"q@	c #3A3A3A",
"r@	c #A3A3A3",
"s@	c #E5E5E5",
"t@	c #838383",
"u@	c #363636",
"v@	c #2C2C2C",
"                              . +         @                     ",
"                          #   $ % &     * =                     ",
"                  - ;         > , ' ) ! ~ {                     ",
"                  ] ^         / ( _ :                           ",
"                < [ }         | 1 2 3     4 +                   ",
"                5 6 7         8 9 0 a     b c                   ",
"                d e f g h i j k l m n     o p                   ",
"                q r s   t u v w x y z   A B C D                 ",
"                E F G     H I J K L f M N O P z                 ",
"                  Q R S T U V W X Y Z `  ...+.g                 ",
"                  @.#.$.%.&.*.=.-.;.>.,.'.).!.~.                ",
"                    {.].^./.(._.:.<.[.}.|.1.2.3.4.              ",
"                  5.2 6.7.8.9.0.a.b.c.d.e.f.g.h.i.              ",
"                j.k.l.m.n.o.p.q.r.q.s.t.u.v.w.x.y.              ",
"                  z.A.B.C.D.E.F.G.H.I.J.K.L.M.N.g               ",
"                  O.w P.Q.R.S.T.U.V.W.X.Y.Z.`. +g               ",
"                  .+++@+#+$+%+&+*+=+-+;+>+,+'+)+g               ",
"                    !+~+{+]+^+/+(+_+r.:+<+[+}+|+                ",
"                    1+2+3+4+=+5+-.#+6+7+8+9+0+g                 ",
"                      a+b+c+d+e+f+g+h+i+j+k+g                   ",
"            l+m+n+o+p+    q+r+s+t+u+v+w+p+x+y+z+A+B+C+          ",
"            D+E+F+G+H+      p+I+J+K+g g L+M+N+O+P+Q+R+g         ",
"            l+S+T+U+V+      W+X+Y+Z+g C+G+`+G+ @.@+@D+p+        ",
"            g @@T+U+V+      #@$@%@&@  *@=@-@o+g ;@>@,@'@        ",
"              *@T+U+V+  )@!@,@~@{@]@^@/@/@(@_@p+:@<@[@}@        ",
"              *@T+U+V+  |@1@2@3@4@5@6@7@g g C+S+N+8@9@!         ",
"              *@T+U+V+  0@a@D++@b@c@d@'@! &@;@e@f@g@. g         ",
"              *@T+U+V+    g #@$@%@&@g g V+h@i@E+)@C+g           ",
"              *@T+U+V+      j@k@l@@@  m@k@n@n@o@p@p@q@p+        ",
"              Z+F+G+H+      g g g g   H+r@s@s@s@s@s@t@'@        ",
"              _@n+o+p+                p+u@A+A+A+A+A+v@C+        ",
"                                                                "};
