<?xml version="1.0" encoding="UTF-8" standalone="no"?>
<!-- Created with Inkscape (http://www.inkscape.org/) -->

<svg
   xmlns:dc="http://purl.org/dc/elements/1.1/"
   xmlns:cc="http://creativecommons.org/ns#"
   xmlns:rdf="http://www.w3.org/1999/02/22-rdf-syntax-ns#"
   xmlns:svg="http://www.w3.org/2000/svg"
   xmlns="http://www.w3.org/2000/svg"
   xmlns:xlink="http://www.w3.org/1999/xlink"
   xmlns:sodipodi="http://sodipodi.sourceforge.net/DTD/sodipodi-0.dtd"
   xmlns:inkscape="http://www.inkscape.org/namespaces/inkscape"
   width="16.466076"
   height="16.515806"
   id="svg4366"
   version="1.1"
   inkscape:version="0.47 r22583"
   sodipodi:docname="New document 21">
  <defs
     id="defs4368">
    <inkscape:perspective
       sodipodi:type="inkscape:persp3d"
       inkscape:vp_x="0 : 526.18109 : 1"
       inkscape:vp_y="0 : 1000 : 0"
       inkscape:vp_z="744.09448 : 526.18109 : 1"
       inkscape:persp3d-origin="372.04724 : 350.78739 : 1"
       id="perspective4374" />
    <inkscape:perspective
       id="perspective4352"
       inkscape:persp3d-origin="0.5 : 0.33333333 : 1"
       inkscape:vp_z="1 : 0.5 : 1"
       inkscape:vp_y="0 : 1000 : 0"
       inkscape:vp_x="0 : 0.5 : 1"
       sodipodi:type="inkscape:persp3d" />
    <linearGradient
       inkscape:collect="always"
       xlink:href="#linearGradient912"
       id="linearGradient2659"
       gradientUnits="userSpaceOnUse"
       gradientTransform="matrix(0.19001,0.04869582,-0.04493674,0.175342,582.7897,365.713)"
       x1="84.717567"
       y1="67.629982"
       x2="7.7171917"
       y2="18.836344" />
    <linearGradient
       id="linearGradient912">
      <stop
         id="stop913"
         offset="0.0000000"
         style="stop-color:#b1f3f3;stop-opacity:1.0000000;" />
      <stop
         id="stop855"
         offset="0.28319508"
         style="stop-color:#ffffff;stop-opacity:1.0000000;" />
      <stop
         id="stop1077"
         offset="0.43082523"
         style="stop-color:#e2ffff;stop-opacity:1.0000000;" />
      <stop
         id="stop1078"
         offset="0.69532084"
         style="stop-color:#ffffff;stop-opacity:1.0000000;" />
      <stop
         id="stop914"
         offset="1.0000000"
         style="stop-color:#bdffff;stop-opacity:1.0000000;" />
    </linearGradient>
    <linearGradient
       y2="18.836344"
       x2="7.7171917"
       y1="67.629982"
       x1="84.717567"
       gradientTransform="matrix(0.19001,0.04869582,-0.04493674,0.175342,227.22237,560.49877)"
       gradientUnits="userSpaceOnUse"
       id="linearGradient4364"
       xlink:href="#linearGradient912"
       inkscape:collect="always" />
  </defs>
  <sodipodi:namedview
     id="base"
     pagecolor="#ffffff"
     bordercolor="#666666"
     borderopacity="1.0"
     inkscape:pageopacity="0.0"
     inkscape:pageshadow="2"
     inkscape:zoom="0.35"
     inkscape:cx="180.3759"
     inkscape:cy="-83.170665"
     inkscape:document-units="px"
     inkscape:current-layer="layer1"
     showgrid="false"
     inkscape:window-width="555"
     inkscape:window-height="483"
     inkscape:window-x="837"
     inkscape:window-y="540"
     inkscape:window-maximized="0" />
  <metadata
     id="metadata4371">
    <rdf:RDF>
      <cc:Work
         rdf:about="">
        <dc:format>image/svg+xml</dc:format>
        <dc:type
           rdf:resource="http://purl.org/dc/dcmitype/StillImage" />
        <dc:title></dc:title>
      </cc:Work>
    </rdf:RDF>
  </metadata>
  <g
     inkscape:label="Layer 1"
     inkscape:groupmode="layer"
     id="layer1"
     transform="translate(-194.6241,-432.67571)">
    <path
       d="m 208.55741,434.58813 -0.79012,0.78226 -0.12571,-0.71911 -0.69484,0.12586 0.21572,1.19809 -1.2642,1.25646 -0.1234,-0.87048 0.47309,-0.30426 -0.38208,-0.59638 -0.20357,0.13019 -0.0411,-0.29016 -0.69894,0.0944 0.0315,0.23297 -0.14246,-0.0608 -0.28805,0.64955 0.55273,0.23891 0.19454,1.39932 -0.80737,0.80216 -0.0287,-0.22011 -0.70171,0.0815 0.094,0.77177 -0.86337,0.85466 -0.24888,-0.90264 0.6465,-0.64887 -0.49835,-0.49851 -0.36778,0.36773 -0.29366,-1.06001 1.26553,-1.23791 0.72895,0.14427 0.13548,-0.69471 -0.2539,-0.0529 0.35622,-0.34637 -0.49687,-0.50422 -0.38929,0.38045 -0.0699,-0.24892 -0.68093,0.19022 0.16768,0.62653 -0.98256,0.96393 -0.56215,-2.02847 0.76128,-0.97808 -0.55159,-0.43313 -0.44468,0.57292 -0.26995,-0.96276 c -0.22698,0.0634 -0.45396,0.12681 -0.68094,0.19022 l 0.29791,1.06718 -0.69269,-0.23832 -0.22529,0.66563 1.15019,0.39811 0.47831,1.7152 -0.81935,-0.31333 -0.0366,-0.56862 -0.70435,0.0444 0.0157,0.24717 -0.27643,-0.10732 -0.25382,0.65831 0.22086,0.087 -0.12767,0.0949 0.42084,0.56375 0.482,-0.36276 1.31664,0.50763 0.30346,1.09291 -0.20373,-0.0826 -0.26523,0.6554 0.70951,0.29125 0.34399,1.2431 -0.96676,-0.25992 -0.2347,-0.88685 -0.68372,0.17735 0.12847,0.4949 -1.05949,-0.2776 -0.42975,-1.71492 0.49602,-0.55977 -0.52994,-0.47014 -0.17109,0.19323 -0.11998,-0.48058 -0.68796,0.17018 0.13682,0.5335 -0.25669,-0.0658 -0.18112,0.68303 0.63169,0.16797 0.33202,1.3373 -2.03768,-0.54045 -0.45879,-1.15096 -0.65562,0.25749 0.26598,0.66996 -0.96253,-0.25276 -0.18114,0.68303 1.07662,0.28199 -0.5598,0.47656 0.45813,0.53684 0.92583,-0.79003 1.72541,0.45434 -0.68732,0.54722 -0.50549,-0.2572 -0.31934,0.62937 0.215,0.10981 -0.22958,0.18431 0.43517,0.55527 0.18367,-0.14744 0.0205,0.15721 0.70741,-0.0801 -0.0722,-0.59598 1.10629,-0.87751 1.09797,0.29355 -0.17359,0.13179 0.42654,0.56522 0.6126,-0.46912 0.88837,0.23376 -0.76451,0.80097 -0.88984,-0.22804 -0.17541,0.68449 0.50196,0.12864 -0.76306,0.79528 -1.71254,-0.45713 -0.24579,-0.70126 -0.66689,0.23029 0.0828,0.24614 -0.47769,-0.12851 -0.18112,0.68303 0.52901,0.14165 -0.18249,0.1903 0.50697,0.48857 0.45553,-0.47289 1.33606,0.36064 -1.46002,1.52238 -1.23438,-0.16438 -0.0884,0.70071 0.71783,0.0928 -0.68979,0.72287 0.50697,0.48857 0.77023,-0.79952 0.14004,0.71062 0.69206,-0.13872 -0.24146,-1.19253 1.22866,-1.28381 0.14914,0.86492 -0.47032,0.31714 0.39788,0.58219 0.19933,-0.13736 0.0511,0.29879 0.69908,-0.11871 -0.0372,-0.23443 0.14245,0.0608 0.27094,-0.65395 -0.55419,-0.2332 -0.23461,-1.38528 0.78893,-0.8251 0.0344,0.22155 0.70039,-0.10012 -0.11402,-0.76474 0.80327,-0.8336 0.29513,1.05431 -0.5791,0.59927 0.50698,0.48858 0.29597,-0.30104 0.2979,1.06718 -1.17089,1.17704 -0.73189,-0.13285 -0.12831,0.69048 0.26107,0.0487 -0.35916,0.35779 0.5055,0.49427 0.38505,-0.38762 0.0756,0.25038 0.67669,-0.19739 -0.17909,-0.62944 0.88356,-0.88597 0.57765,2.06284 -0.65057,0.85449 0.56444,0.43035 0.32961,-0.43222 0.19299,0.6938 0.68239,-0.19592 -0.27829,-1.00135 0.84524,0.28347 0.22674,-0.67132 -1.26718,-0.41595 c -0.0111,-0.004 -0.0228,-0.006 -0.0342,-0.009 l -0.48402,-1.71667 0.94909,0.35265 0.0366,0.56863 0.70727,-0.0558 -0.0171,-0.24146 0.2779,0.10161 0.24811,-0.65978 -0.22801,-0.0828 0.12912,-0.10064 -0.43371,-0.56097 -0.47776,0.36993 -1.42648,-0.52969 -0.30493,-1.08722 0.2978,0.11886 0.25951,-0.65685 -0.79931,-0.32034 -0.28533,-1.0214 1.02118,0.23738 0.2619,0.8756 0.67668,-0.19739 -0.14558,-0.49928 1.07252,0.25054 0.48123,1.7038 -0.48037,0.56986 0.54002,0.45449 0.16831,-0.20609 0.1371,0.48496 0.68093,-0.19022 -0.14969,-0.53073 0.25245,0.0586 0.16401,-0.68742 -0.63607,-0.15085 -0.37209,-1.32326 2.04805,0.47625 0.4917,1.14114 0.64859,-0.27752 -0.28454,-0.66864 0.96983,0.22425 0.15831,-0.68887 -1.07251,-0.25056 0.53699,-0.4824 -0.47963,-0.52411 -0.89599,0.8159 -1.74427,-0.40446 0.67313,-0.56302 0.51557,0.24156 0.29799,-0.64093 -0.22218,-0.10557 0.23106,-0.19001 -0.45667,-0.54253 -0.18513,0.15314 -0.0205,-0.15722 -0.70039,0.10013 0.0907,0.59464 -1.07938,0.91481 -1.11391,-0.25507 0.17652,-0.14321 -0.44234,-0.55103 -0.60557,0.48915 -1.19375,-0.27554 1.01853,-1.00943 0.87974,0.2437 0.19253,-0.68009 -0.49333,-0.1386 0.78148,-0.7723 1.69514,0.50129 0.22722,0.70258 0.67537,-0.21596 -0.0771,-0.24468 0.47475,0.13991 0.19823,-0.67865 -0.53179,-0.15451 0.18675,-0.18314 -0.48973,-0.50846 -0.46547,0.46427 -1.32158,-0.39341 1.49262,-1.48362 1.22708,0.19289 0.11268,-0.70056 -0.71913,-0.11136 0.70821,-0.6999 -0.49688,-0.50423 z"
       id="path2657"
       sodipodi:nodetypes="cccccccccccccccccccccccccccccccccccccccccccccccccccccccccccccccccccccccccccccccccccccccccccccccccccccccccccccccccccccccccccccccccccccccccccccccccccccccccccccccccccccccccccccccccccccccccccccccccccccccccccccccccccccccccccccccccccccccccccccccccccccccccccccccccccc"
       style="fill:url(#linearGradient4364);fill-opacity:1;fill-rule:evenodd;stroke:#000000;stroke-width:0.23553599;stroke-linecap:butt;stroke-linejoin:round;stroke-opacity:1;stroke-dasharray:none"
       inkscape:export-filename="/home/tim/src/tuxmath/trunk/data/images/igloos/snow2.png"
       inkscape:export-xdpi="90"
       inkscape:export-ydpi="90" />
  </g>
</svg>
