<?xml version="1.0" encoding="UTF-8" standalone="no"?>
<!-- Created with Inkscape (http://www.inkscape.org/) -->

<svg
   xmlns:dc="http://purl.org/dc/elements/1.1/"
   xmlns:cc="http://creativecommons.org/ns#"
   xmlns:rdf="http://www.w3.org/1999/02/22-rdf-syntax-ns#"
   xmlns:svg="http://www.w3.org/2000/svg"
   xmlns="http://www.w3.org/2000/svg"
   xmlns:xlink="http://www.w3.org/1999/xlink"
   xmlns:sodipodi="http://sodipodi.sourceforge.net/DTD/sodipodi-0.dtd"
   xmlns:inkscape="http://www.inkscape.org/namespaces/inkscape"
   width="9.7626762"
   height="9.0084467"
   id="svg4444"
   version="1.1"
   inkscape:version="0.47 r22583"
   sodipodi:docname="New document 24">
  <defs
     id="defs4446">
    <inkscape:perspective
       sodipodi:type="inkscape:persp3d"
       inkscape:vp_x="0 : 526.18109 : 1"
       inkscape:vp_y="0 : 1000 : 0"
       inkscape:vp_z="744.09448 : 526.18109 : 1"
       inkscape:persp3d-origin="372.04724 : 350.78739 : 1"
       id="perspective4452" />
    <inkscape:perspective
       id="perspective4430"
       inkscape:persp3d-origin="0.5 : 0.33333333 : 1"
       inkscape:vp_z="1 : 0.5 : 1"
       inkscape:vp_y="0 : 1000 : 0"
       inkscape:vp_x="0 : 0.5 : 1"
       sodipodi:type="inkscape:persp3d" />
    <linearGradient
       inkscape:collect="always"
       xlink:href="#linearGradient912"
       id="linearGradient2663"
       gradientUnits="userSpaceOnUse"
       gradientTransform="matrix(0.114105,0,0,0.105297,621.8357,311.5846)"
       x1="84.717567"
       y1="67.629982"
       x2="7.7171917"
       y2="18.836344" />
    <linearGradient
       id="linearGradient912">
      <stop
         id="stop913"
         offset="0.0000000"
         style="stop-color:#b1f3f3;stop-opacity:1.0000000;" />
      <stop
         id="stop855"
         offset="0.28319508"
         style="stop-color:#ffffff;stop-opacity:1.0000000;" />
      <stop
         id="stop1077"
         offset="0.43082523"
         style="stop-color:#e2ffff;stop-opacity:1.0000000;" />
      <stop
         id="stop1078"
         offset="0.69532084"
         style="stop-color:#ffffff;stop-opacity:1.0000000;" />
      <stop
         id="stop914"
         offset="1.0000000"
         style="stop-color:#bdffff;stop-opacity:1.0000000;" />
    </linearGradient>
    <linearGradient
       y2="18.836344"
       x2="7.7171917"
       y1="67.629982"
       x1="84.717567"
       gradientTransform="matrix(0.114105,0,0,0.105297,405.98486,596.1829)"
       gradientUnits="userSpaceOnUse"
       id="linearGradient4442"
       xlink:href="#linearGradient912"
       inkscape:collect="always" />
  </defs>
  <sodipodi:namedview
     id="base"
     pagecolor="#ffffff"
     bordercolor="#666666"
     borderopacity="1.0"
     inkscape:pageopacity="0.0"
     inkscape:pageshadow="2"
     inkscape:zoom="0.35"
     inkscape:cx="4.8813383"
     inkscape:cy="4.5042257"
     inkscape:document-units="px"
     inkscape:current-layer="layer1"
     showgrid="false"
     inkscape:window-width="555"
     inkscape:window-height="483"
     inkscape:window-x="837"
     inkscape:window-y="540"
     inkscape:window-maximized="0" />
  <metadata
     id="metadata4449">
    <rdf:RDF>
      <cc:Work
         rdf:about="">
        <dc:format>image/svg+xml</dc:format>
        <dc:type
           rdf:resource="http://purl.org/dc/dcmitype/StillImage" />
        <dc:title></dc:title>
      </cc:Work>
    </rdf:RDF>
  </metadata>
  <g
     inkscape:label="Layer 1"
     inkscape:groupmode="layer"
     id="layer1"
     transform="translate(-370.11866,-527.85796)">
    <path
       d="m 377.28388,527.92647 -0.33226,0.55491 -0.1747,-0.38707 -0.37337,0.17128 0.29459,0.64397 -0.53094,0.89061 -0.19525,-0.47271 0.22265,-0.23978 -0.30144,-0.28088 -0.0959,0.10276 -0.0651,-0.15757 -0.38022,0.15415 0.0514,0.12674 -0.0891,-0.0137 -0.0685,0.40762 0.34597,0.0548 0.31172,0.76044 -0.33911,0.56862 -0.048,-0.11989 -0.38365,0.14729 0.16442,0.42134 -0.36309,0.60629 -0.27061,-0.47271 0.27061,-0.459 -0.35282,-0.20895 -0.15414,0.26032 -0.31856,-0.55492 0.53436,-0.88032 0.4316,-0.024 -0.024,-0.41104 -0.15072,0.007 0.15072,-0.24663 -0.35282,-0.21238 -0.16442,0.27061 -0.0754,-0.13017 -0.35624,0.20553 0.18497,0.32884 -0.41448,0.68508 -0.60971,-1.06188 0.28773,-0.6611 -0.37338,-0.16442 -0.16784,0.38707 -0.29116,-0.50353 c -0.11875,0.0685 -0.23749,0.13701 -0.35625,0.20552 l 0.322,0.55835 -0.42475,-0.0343 -0.0308,0.40762 0.70564,0.0582 0.51724,0.89745 -0.50697,-0.0582 -0.10277,-0.31513 -0.39049,0.12674 0.0445,0.13701 -0.17127,-0.0206 -0.048,0.40763 0.13701,0.0171 -0.0582,0.0719 0.31857,0.25691 0.21921,-0.27403 0.81526,0.0959 0.32884,0.57204 -0.12674,-0.0171 -0.0548,0.40763 0.44187,0.0617 0.37337,0.65083 -0.58232,-0.007 -0.26033,-0.46586 -0.35967,0.19868 0.14387,0.26033 -0.63713,-0.003 -0.48984,-0.9043 0.19868,-0.38708 -0.36652,-0.1884 -0.0685,0.1336 -0.13702,-0.25348 -0.36309,0.19524 0.15414,0.28088 -0.15414,0 -0.003,0.41105 0.38023,0.003 0.38022,0.70563 -1.2263,-0.0103 -0.42474,-0.58232 -0.33227,0.23978 0.24663,0.33911 -0.57889,-0.003 -0.003,0.41105 0.6474,0.003 -0.24663,0.3494 0.33569,0.23635 0.40762,-0.5789 1.0379,0.007 -0.30829,0.40762 -0.32199,-0.0719 -0.0891,0.40077 0.13701,0.0308 -0.10275,0.13702 0.32541,0.25005 0.0822,-0.10961 0.0343,0.0856 0.38706,-0.1473 -0.12673,-0.32541 0.49669,-0.65426 0.6611,0.007 -0.0788,0.0993 0.32199,0.25691 0.27746,-0.35283 0.53436,0.003 -0.31513,0.56177 -0.53437,0 0,0.41105 0.30144,0 -0.31514,0.55835 -1.03105,-0.0103 -0.23978,-0.35967 -0.34254,0.22608 0.0822,0.12674 -0.28774,-0.003 -0.003,0.41105 0.31856,0.003 -0.0754,0.13361 0.35624,0.20209 0.1884,-0.33227 0.80498,0.0103 -0.60288,1.06873 -0.71934,0.0856 0.0514,0.40762 0.4179,-0.0514 -0.28431,0.50696 0.35625,0.20211 0.31856,-0.56179 0.18154,0.38023 0.36995,-0.17812 -0.30829,-0.63713 0.50696,-0.90088 0.20895,0.46586 -0.21922,0.24662 0.30828,0.27062 0.0925,-0.1062 0.0719,0.161 0.37679,-0.16784 -0.0548,-0.12674 0.0891,0.0137 0.0582,-0.40762 -0.34597,-0.0514 -0.33226,-0.74674 0.32541,-0.57889 0.0514,0.11988 0.38023,-0.15757 -0.1747,-0.41448 0.33226,-0.58575 0.31857,0.5515 -0.23978,0.42133 0.35624,0.2021 0.12331,-0.21238 0.32199,0.55834 -0.48983,0.83239 -0.43161,0.0308 0.0274,0.40763 0.15415,-0.0103 -0.15072,0.25349 0.35623,0.20552 0.161,-0.27404 0.0788,0.13018 0.35281,-0.20896 -0.19181,-0.32884 0.36993,-0.62685 0.62343,1.079 -0.2432,0.57548 0.38022,0.16098 0.12332,-0.29115 0.20894,0.3631 0.35625,-0.20896 -0.30144,-0.52408 0.51724,0.0377 0.0308,-0.41105 -0.77414,-0.0514 c -0.007,-6.8e-4 -0.0137,0 -0.0205,0 l -0.52067,-0.89745 0.58574,0.0617 0.10277,0.31514 0.3905,-0.1336 -0.0445,-0.13358 0.17128,0.0171 0.0445,-0.40762 -0.14044,-0.0137 0.0582,-0.0754 -0.32542,-0.25347 -0.2158,0.27746 -0.88033,-0.0925 -0.32884,-0.56862 0.18497,0.024 0.0514,-0.40763 -0.49668,-0.0651 -0.3083,-0.53437 0.60973,-0.0137 0.27403,0.45559 0.35282,-0.20895 -0.15414,-0.26034 0.64056,-0.0137 0.51723,0.89061 -0.1884,0.3905 0.36994,0.17812 0.0651,-0.14044 0.1473,0.25348 0.35623,-0.20553 -0.16099,-0.27746 0.15072,-0.003 -0.007,-0.41106 -0.38023,0.007 -0.40077,-0.69194 1.22287,-0.0274 0.44189,0.57204 0.32541,-0.25005 -0.25691,-0.3357 0.57891,-0.0137 -0.0103,-0.41105 -0.64056,0.0137 0.23293,-0.3494 -0.34597,-0.22607 -0.38706,0.58917 -1.04134,0.024 0.29801,-0.41448 0.32543,0.0617 0.0754,-0.4042 -0.14045,-0.0274 0.10277,-0.14045 -0.33569,-0.23978 -0.0822,0.11304 -0.0343,-0.0856 -0.38021,0.15758 0.13701,0.32199 -0.47613,0.67138 -0.66453,0.0171 0.0788,-0.10619 -0.32885,-0.24663 -0.2706,0.3631 -0.71249,0.0171 0.42818,-0.71591 0.53093,0.0103 0.0103,-0.41106 -0.29801,-0.007 0.32884,-0.54807 1.02763,0.0377 0.2295,0.3631 0.34939,-0.21923 -0.0788,-0.12674 0.28774,0.0103 0.0137,-0.41106 -0.32199,-0.0103 0.0788,-0.13017 -0.34938,-0.21579 -0.19526,0.32883 -0.80154,-0.0308 0.62685,-1.05161 0.71933,-0.0685 -0.0377,-0.41105 -0.42133,0.0411 0.29802,-0.49668 -0.35283,-0.21238 z"
       id="path2661"
       sodipodi:nodetypes="cccccccccccccccccccccccccccccccccccccccccccccccccccccccccccccccccccccccccccccccccccccccccccccccccccccccccccccccccccccccccccccccccccccccccccccccccccccccccccccccccccccccccccccccccccccccccccccccccccccccccccccccccccccccccccccccccccccccccccccccccccccccccccccccccccc"
       style="fill:url(#linearGradient4442);fill-opacity:1;fill-rule:evenodd;stroke:#000000;stroke-width:0.13701668;stroke-linecap:butt;stroke-linejoin:round;stroke-opacity:1;stroke-dasharray:none"
       inkscape:export-filename="/home/tim/src/tuxmath/trunk/data/images/igloos/snow3.png"
       inkscape:export-xdpi="90"
       inkscape:export-ydpi="90" />
  </g>
</svg>
