<?xml version="1.0" encoding="UTF-8" standalone="no"?>
<!-- Created with Inkscape (http://www.inkscape.org/) -->

<svg
   xmlns:dc="http://purl.org/dc/elements/1.1/"
   xmlns:cc="http://creativecommons.org/ns#"
   xmlns:rdf="http://www.w3.org/1999/02/22-rdf-syntax-ns#"
   xmlns:svg="http://www.w3.org/2000/svg"
   xmlns="http://www.w3.org/2000/svg"
   xmlns:xlink="http://www.w3.org/1999/xlink"
   xmlns:sodipodi="http://sodipodi.sourceforge.net/DTD/sodipodi-0.dtd"
   xmlns:inkscape="http://www.inkscape.org/namespaces/inkscape"
   width="24.675243"
   height="22.771194"
   id="svg4288"
   version="1.1"
   inkscape:version="0.47 r22583"
   sodipodi:docname="New document 18">
  <defs
     id="defs4290">
    <inkscape:perspective
       sodipodi:type="inkscape:persp3d"
       inkscape:vp_x="0 : 526.18109 : 1"
       inkscape:vp_y="0 : 1000 : 0"
       inkscape:vp_z="744.09448 : 526.18109 : 1"
       inkscape:persp3d-origin="372.04724 : 350.78739 : 1"
       id="perspective4296" />
    <inkscape:perspective
       id="perspective4274"
       inkscape:persp3d-origin="0.5 : 0.33333333 : 1"
       inkscape:vp_z="1 : 0.5 : 1"
       inkscape:vp_y="0 : 1000 : 0"
       inkscape:vp_x="0 : 0.5 : 1"
       sodipodi:type="inkscape:persp3d" />
    <linearGradient
       inkscape:collect="always"
       xlink:href="#linearGradient912"
       id="linearGradient3752"
       gradientUnits="userSpaceOnUse"
       gradientTransform="matrix(0.288414,0,0,0.26615,598.1275,408.6798)"
       x1="84.717567"
       y1="67.629982"
       x2="7.7171917"
       y2="18.836344" />
    <linearGradient
       id="linearGradient912">
      <stop
         id="stop913"
         offset="0.0000000"
         style="stop-color:#b1f3f3;stop-opacity:1.0000000;" />
      <stop
         id="stop855"
         offset="0.28319508"
         style="stop-color:#ffffff;stop-opacity:1.0000000;" />
      <stop
         id="stop1077"
         offset="0.43082523"
         style="stop-color:#e2ffff;stop-opacity:1.0000000;" />
      <stop
         id="stop1078"
         offset="0.69532084"
         style="stop-color:#ffffff;stop-opacity:1.0000000;" />
      <stop
         id="stop914"
         offset="1.0000000"
         style="stop-color:#bdffff;stop-opacity:1.0000000;" />
    </linearGradient>
    <linearGradient
       y2="18.836344"
       x2="7.7171917"
       y1="67.629982"
       x1="84.717567"
       gradientTransform="matrix(0.288414,0,0,0.26615,453.32178,693.67575)"
       gradientUnits="userSpaceOnUse"
       id="linearGradient4286"
       xlink:href="#linearGradient912"
       inkscape:collect="always" />
  </defs>
  <sodipodi:namedview
     id="base"
     pagecolor="#ffffff"
     bordercolor="#666666"
     borderopacity="1.0"
     inkscape:pageopacity="0.0"
     inkscape:pageshadow="2"
     inkscape:zoom="0.35"
     inkscape:cx="12.337622"
     inkscape:cy="11.3856"
     inkscape:document-units="px"
     inkscape:current-layer="layer1"
     showgrid="false"
     inkscape:window-width="555"
     inkscape:window-height="483"
     inkscape:window-x="837"
     inkscape:window-y="540"
     inkscape:window-maximized="0" />
  <metadata
     id="metadata4293">
    <rdf:RDF>
      <cc:Work
         rdf:about="">
        <dc:format>image/svg+xml</dc:format>
        <dc:type
           rdf:resource="http://purl.org/dc/dcmitype/StillImage" />
        <dc:title></dc:title>
      </cc:Work>
    </rdf:RDF>
  </metadata>
  <g
     inkscape:label="Layer 1"
     inkscape:groupmode="layer"
     id="layer1"
     transform="translate(-362.66238,-520.97659)">
    <path
       d="m 380.77579,521.14983 -0.83984,1.40261 -0.44156,-0.97836 -0.94374,0.4329 0.7446,1.62772 -1.342,2.25111 -0.49352,-1.19482 0.56278,-0.60607 -0.76192,-0.70996 -0.24241,0.25974 -0.16451,-0.39827 -0.96105,0.38962 0.12987,0.32034 -0.22511,-0.0346 -0.17317,1.03032 0.87448,0.13852 0.78789,1.92211 -0.85716,1.43724 -0.12121,-0.30303 -0.96971,0.37229 0.41559,1.06495 -0.91776,1.53249 -0.68399,-1.19483 0.68399,-1.16018 -0.89178,-0.52814 -0.38963,0.65801 -0.80519,-1.40261 1.35067,-2.22514 1.09091,-0.0606 -0.0606,-1.03897 -0.38095,0.0173 0.38095,-0.62338 -0.89178,-0.5368 -0.41559,0.68399 -0.19048,-0.32901 -0.90045,0.51949 0.46755,0.83118 -1.04763,1.73162 -1.54115,-2.68402 0.72728,-1.67101 -0.94373,-0.41559 -0.42425,0.97836 -0.73593,-1.27273 c -0.30015,0.17315 -0.60031,0.34632 -0.90045,0.51948 l 0.81387,1.41127 -1.07362,-0.0866 -0.0779,1.03031 1.78358,0.14719 1.30737,2.26843 -1.2814,-0.14719 -0.25975,-0.79654 -0.98702,0.32034 0.11256,0.34632 -0.4329,-0.0519 -0.12123,1.03031 0.34634,0.0433 -0.14719,0.18183 0.8052,0.64935 0.55412,-0.69265 2.06063,0.24243 0.83117,1.4459 -0.32035,-0.0433 -0.13852,1.03032 1.11689,0.15584 0.94374,1.64505 -1.47189,-0.0173 -0.65801,-1.17749 -0.9091,0.50216 0.36364,0.65803 -1.61041,-0.009 -1.23811,-2.28573 0.50218,-0.97837 -0.92643,-0.4762 -0.17315,0.33767 -0.34634,-0.6407 -0.91775,0.49351 0.38961,0.70996 -0.38961,0 -0.009,1.03898 0.96104,0.009 0.96106,1.78356 -3.09961,-0.026 -1.0736,-1.47188 -0.83984,0.60607 0.62338,0.85715 -1.46321,-0.009 -0.009,1.03898 1.63638,0.009 -0.62339,0.88312 0.8485,0.59741 1.03031,-1.46322 2.62341,0.0173 -0.77923,1.03031 -0.81387,-0.18182 -0.22511,1.013 0.34633,0.0779 -0.25974,0.34632 0.82251,0.63204 0.2078,-0.27706 0.0866,0.21645 0.97836,-0.3723 -0.32034,-0.82252 1.25542,-1.6537 1.67102,0.0173 -0.19914,0.25108 0.81386,0.64937 0.70131,-0.89179 1.35067,0.009 -0.79654,1.41992 -1.35067,0 0,1.03898 0.76191,0 -0.79654,1.41127 -2.6061,-0.026 -0.60606,-0.90911 -0.86582,0.57145 0.2078,0.32034 -0.72729,-0.009 -0.009,1.03897 0.8052,0.009 -0.19048,0.33766 0.90044,0.51082 0.47621,-0.83983 2.03465,0.026 -1.52383,2.70133 -1.8182,0.21645 0.12988,1.03031 1.05628,-0.12987 -0.71862,1.2814 0.90044,0.51083 0.80521,-1.41994 0.45887,0.96106 0.93508,-0.45022 -0.77923,-1.61042 1.28141,-2.27708 0.52814,1.17751 -0.55413,0.62338 0.77924,0.684 0.23377,-0.26841 0.18182,0.40693 0.95238,-0.42425 -0.13853,-0.32034 0.22511,0.0346 0.14719,-1.03032 -0.87446,-0.12986 -0.83983,-1.88748 0.82251,-1.46322 0.12987,0.30303 0.96105,-0.39826 -0.44156,-1.04763 0.83983,-1.48054 0.80521,1.39395 -0.60607,1.06495 0.90045,0.51083 0.31168,-0.53681 0.81387,1.41129 -1.23811,2.10391 -1.09092,0.0779 0.0693,1.03032 0.38961,-0.026 -0.38095,0.6407 0.90044,0.51949 0.40693,-0.69267 0.19914,0.32902 0.89179,-0.52815 -0.48485,-0.83117 0.93507,-1.58444 1.57577,2.7273 -0.61473,1.45457 0.96106,0.40693 0.31169,-0.73594 0.52814,0.91776 0.90045,-0.52814 -0.76192,-1.3247 1.30738,0.0952 0.0779,-1.03898 -1.95673,-0.12987 c -0.0173,-0.002 -0.0346,0 -0.052,0 l -1.31604,-2.26843 1.48054,0.15585 0.25975,0.79655 0.98702,-0.33767 -0.11256,-0.33766 0.43291,0.0433 0.11255,-1.03031 -0.35498,-0.0346 0.14719,-0.19048 -0.82252,-0.64069 -0.54546,0.70131 -2.22514,-0.23377 -0.83117,-1.43725 0.46753,0.0606 0.12988,-1.03032 -1.25543,-0.1645 -0.77923,-1.35066 1.54115,-0.0346 0.69264,1.15153 0.89179,-0.52815 -0.38961,-0.65801 1.61906,-0.0346 1.30738,2.25112 -0.4762,0.98703 0.93507,0.45022 0.1645,-0.355 0.3723,0.6407 0.90045,-0.51948 -0.40694,-0.7013 0.38096,-0.009 -0.0173,-1.03898 -0.96105,0.0173 -1.013,-1.74894 3.09095,-0.0693 1.11688,1.4459 0.82253,-0.63204 -0.64936,-0.84849 1.46322,-0.0346 -0.026,-1.03898 -1.61907,0.0346 0.58875,-0.88312 -0.87447,-0.57144 -0.97836,1.4892 -2.63207,0.0606 0.75326,-1.04763 0.82251,0.15584 0.19048,-1.02166 -0.35498,-0.0693 0.25975,-0.35499 -0.8485,-0.60606 -0.20779,0.28571 -0.0866,-0.21645 -0.96105,0.39828 0.34632,0.81386 -1.20347,1.69699 -1.67968,0.0433 0.19914,-0.2684 -0.83118,-0.62339 -0.68399,0.91776 -1.80088,0.0433 1.08226,-1.80954 1.34201,0.026 0.026,-1.03897 -0.75326,-0.0173 0.83119,-1.38529 2.59742,0.0952 0.5801,0.91775 0.88313,-0.55412 -0.19914,-0.32035 0.72728,0.026 0.0346,-1.03896 -0.81386,-0.026 0.19914,-0.32901 -0.88313,-0.54545 -0.49351,0.83118 -2.02599,-0.0779 1.58443,-2.65804 1.8182,-0.17316 -0.0952,-1.03897 -1.06495,0.10389 0.75326,-1.25542 -0.89179,-0.5368 z"
       id="path3750"
       sodipodi:nodetypes="cccccccccccccccccccccccccccccccccccccccccccccccccccccccccccccccccccccccccccccccccccccccccccccccccccccccccccccccccccccccccccccccccccccccccccccccccccccccccccccccccccccccccccccccccccccccccccccccccccccccccccccccccccccccccccccccccccccccccccccccccccccccccccccccccccc"
       style="fill:url(#linearGradient4286);fill-opacity:1;fill-rule:evenodd;stroke:#000000;stroke-width:0.34632424;stroke-linecap:butt;stroke-linejoin:round;stroke-opacity:1;stroke-dasharray:none"
       inkscape:export-filename="/home/tim/src/tuxmath/trunk/data/images/igloos/snow1.png"
       inkscape:export-xdpi="90"
       inkscape:export-ydpi="90" />
  </g>
</svg>
