<?xml version="1.0" encoding="UTF-8" standalone="no"?>
<!-- Created with Inkscape (http://www.inkscape.org/) -->

<svg
   xmlns:dc="http://purl.org/dc/elements/1.1/"
   xmlns:cc="http://creativecommons.org/ns#"
   xmlns:rdf="http://www.w3.org/1999/02/22-rdf-syntax-ns#"
   xmlns:svg="http://www.w3.org/2000/svg"
   xmlns="http://www.w3.org/2000/svg"
   xmlns:sodipodi="http://sodipodi.sourceforge.net/DTD/sodipodi-0.dtd"
   xmlns:inkscape="http://www.inkscape.org/namespaces/inkscape"
   width="84.095161"
   height="82.974266"
   id="svg4596"
   version="1.1"
   inkscape:version="0.47 r22583"
   sodipodi:docname="New document 31">
  <defs
     id="defs4598">
    <inkscape:perspective
       sodipodi:type="inkscape:persp3d"
       inkscape:vp_x="0 : 526.18109 : 1"
       inkscape:vp_y="0 : 1000 : 0"
       inkscape:vp_z="744.09448 : 526.18109 : 1"
       inkscape:persp3d-origin="372.04724 : 350.78739 : 1"
       id="perspective4604" />
    <inkscape:perspective
       id="perspective4588"
       inkscape:persp3d-origin="0.5 : 0.33333333 : 1"
       inkscape:vp_z="1 : 0.5 : 1"
       inkscape:vp_y="0 : 1000 : 0"
       inkscape:vp_x="0 : 0.5 : 1"
       sodipodi:type="inkscape:persp3d" />
  </defs>
  <sodipodi:namedview
     id="base"
     pagecolor="#ffffff"
     bordercolor="#666666"
     borderopacity="1.0"
     inkscape:pageopacity="0.0"
     inkscape:pageshadow="2"
     inkscape:zoom="0.35"
     inkscape:cx="259.90472"
     inkscape:cy="-104.22715"
     inkscape:document-units="px"
     inkscape:current-layer="layer1"
     showgrid="false"
     inkscape:window-width="555"
     inkscape:window-height="483"
     inkscape:window-x="837"
     inkscape:window-y="540"
     inkscape:window-maximized="0" />
  <metadata
     id="metadata4601">
    <rdf:RDF>
      <cc:Work
         rdf:about="">
        <dc:format>image/svg+xml</dc:format>
        <dc:type
           rdf:resource="http://purl.org/dc/dcmitype/StillImage" />
        <dc:title></dc:title>
      </cc:Work>
    </rdf:RDF>
  </metadata>
  <g
     inkscape:label="Layer 1"
     inkscape:groupmode="layer"
     id="layer1"
     transform="translate(-115.09528,-345.16076)">
    <g
       id="g1882"
       transform="matrix(0.103654,0,0,0.103654,124.35549,342.96882)"
       style="fill:#ececec"
       inkscape:export-filename="/home/tim/src/tuxmath-61/trunk/data/images/igloos/steam2.png"
       inkscape:export-xdpi="90"
       inkscape:export-ydpi="90">
      <path
         d="M 367.67841,368.11159 C 1205.858,1210.6046 -277.73714,-691.84023 377.92147,378.53493 1033.5801,1448.9101 110.34882,-782.22684 389.01862,398.24248 667.68842,1578.7118 589.93589,-799.81934 391.862,431.5957 193.78812,1663.0107 910.6801,-640.60675 372.67433,447.53561 -165.33143,1535.678 1289.8151,-368.58889 367.84051,464.52553 -554.13414,1297.64 1477.5394,29.717178 343.83844,481.81249 -789.86255,933.9078 1500.6372,424.70387 319.65012,486.84886 -861.33693,548.99386 1520.7728,680.25837 305.48048,484.96005 -909.81184,289.66174 1355.9091,996.24953 281.91049,480.44189 -792.08814,-35.365745 1138.2774,1245.4862 255.0091,468.0722 -628.2592,-309.34178 663.91299,1584.3857 249.28084,448.42165 -165.35131,-687.54241 384.04728,1664.5083 242.22404,415.04798 100.40079,-834.41231 -130.49016,1555.5656 246.17952,396.7438 622.8492,-762.078 -278.81463,1475.0046 246.95918,376.70099 772.733,-721.60267 -639.21224,1149.1108 272.11999,359.5958 1183.4522,-429.91922 -895.20294,746.29387 282.57895,341.64596 1460.3608,-63.001945 -948.15322,501.34655 303.56811,336.27689 1555.2894,171.20722 -916.25037,129.0559 334.48024,340.77438 1585.2109,552.49286 -682.88174,-218.19338 343.72152,350.86085 1370.3248,919.91508 -470.5012,-474.38144 367.67841,368.11159 z"
         inkscape:randomized="0.1"
         inkscape:rounded="53.7"
         inkscape:flatsided="true"
         sodipodi:arg2="-0.57282003"
         sodipodi:arg1="-0.72989966"
         sodipodi:r2="71.94632"
         sodipodi:r1="72.84314"
         sodipodi:cy="412.36218"
         sodipodi:cx="314.28571"
         sodipodi:sides="20"
         id="path1872"
         style="fill:#ececec;fill-opacity:1;stroke:none"
         sodipodi:type="star" />
      <path
         sodipodi:end="12.490678"
         sodipodi:start="6.2199579"
         d="m 445.43168,406.19286 c 4.93533,78.74017 -54.257,146.61298 -132.20977,151.59816 -77.95277,4.98518 -145.14685,-54.80505 -150.08218,-133.54522 -4.93533,-78.74017 54.257,-146.61298 132.20977,-151.59816 77.26656,-4.9413 144.1052,53.78941 149.95982,131.76878 l -141.02361,10.80291 z"
         sodipodi:ry="142.85715"
         sodipodi:rx="141.42857"
         sodipodi:cy="415.21933"
         sodipodi:cx="304.28571"
         id="path1878"
         style="fill:#ececec;fill-opacity:1;stroke:none"
         sodipodi:type="arc" />
      <path
         sodipodi:end="12.490678"
         sodipodi:start="6.2199579"
         d="m 491.35722,661.80495 c 1.24629,17.32284 -13.70127,32.25485 -33.38631,33.35159 -19.68504,1.09674 -36.65324,-12.05711 -37.89954,-29.37995 -1.24629,-17.32283 13.70126,-32.25485 33.38631,-33.35159 19.51175,-1.08709 36.3902,11.83367 37.86864,28.98913 l -35.61203,2.37664 z"
         sodipodi:ry="31.428572"
         sodipodi:rx="35.714287"
         sodipodi:cy="663.79077"
         sodipodi:cx="455.71429"
         id="path1880"
         style="fill:#ececec;fill-opacity:1;stroke:none"
         sodipodi:type="arc" />
    </g>
  </g>
</svg>
