<?xml version="1.0" encoding="UTF-8" standalone="no"?>
<!-- Created with Inkscape (http://www.inkscape.org/) -->

<svg
   xmlns:dc="http://purl.org/dc/elements/1.1/"
   xmlns:cc="http://creativecommons.org/ns#"
   xmlns:rdf="http://www.w3.org/1999/02/22-rdf-syntax-ns#"
   xmlns:svg="http://www.w3.org/2000/svg"
   xmlns="http://www.w3.org/2000/svg"
   xmlns:xlink="http://www.w3.org/1999/xlink"
   xmlns:sodipodi="http://sodipodi.sourceforge.net/DTD/sodipodi-0.dtd"
   xmlns:inkscape="http://www.inkscape.org/namespaces/inkscape"
   width="49.317215"
   height="68.115585"
   id="svg5184"
   version="1.1"
   inkscape:version="0.47 r22583"
   sodipodi:docname="New document 17">
  <defs
     id="defs5186">
    <inkscape:perspective
       sodipodi:type="inkscape:persp3d"
       inkscape:vp_x="0 : 526.18109 : 1"
       inkscape:vp_y="0 : 1000 : 0"
       inkscape:vp_z="744.09448 : 526.18109 : 1"
       inkscape:persp3d-origin="372.04724 : 350.78739 : 1"
       id="perspective5192" />
    <inkscape:perspective
       id="perspective5080"
       inkscape:persp3d-origin="0.5 : 0.33333333 : 1"
       inkscape:vp_z="1 : 0.5 : 1"
       inkscape:vp_y="0 : 1000 : 0"
       inkscape:vp_x="0 : 0.5 : 1"
       sodipodi:type="inkscape:persp3d" />
    <linearGradient
       inkscape:collect="always"
       xlink:href="#linearGradient12377"
       id="linearGradient8062"
       gradientUnits="userSpaceOnUse"
       gradientTransform="scale(0.898229,1.113302)"
       x1="388.02988"
       y1="182.57433"
       x2="403.19357"
       y2="181.03044" />
    <linearGradient
       id="linearGradient12377">
      <stop
         id="stop12378"
         offset="0.0000000"
         style="stop-color:#ffffff;stop-opacity:1.0000000;" />
      <stop
         id="stop12379"
         offset="1.0000000"
         style="stop-color:#c8c8c8;stop-opacity:1.0000000;" />
    </linearGradient>
    <linearGradient
       inkscape:collect="always"
       xlink:href="#linearGradient10491"
       id="linearGradient8064"
       gradientUnits="userSpaceOnUse"
       gradientTransform="scale(0.972343,1.028444)"
       x1="355.46143"
       y1="208.43527"
       x2="305.45908"
       y2="209.47983" />
    <linearGradient
       id="linearGradient10491"
       inkscape:collect="always">
      <stop
         id="stop10492"
         offset="0"
         style="stop-color:#000000;stop-opacity:1;" />
      <stop
         id="stop10493"
         offset="1"
         style="stop-color:#000000;stop-opacity:0;" />
    </linearGradient>
    <linearGradient
       inkscape:collect="always"
       xlink:href="#linearGradient12377"
       id="linearGradient8066"
       gradientUnits="userSpaceOnUse"
       gradientTransform="scale(0.898229,1.113302)"
       x1="386.07327"
       y1="185.66209"
       x2="400.74783"
       y2="184.89015" />
    <linearGradient
       id="linearGradient5093">
      <stop
         id="stop5095"
         offset="0.0000000"
         style="stop-color:#ffffff;stop-opacity:1.0000000;" />
      <stop
         id="stop5097"
         offset="1.0000000"
         style="stop-color:#c8c8c8;stop-opacity:1.0000000;" />
    </linearGradient>
    <linearGradient
       inkscape:collect="always"
       xlink:href="#linearGradient11116"
       id="linearGradient8068"
       gradientUnits="userSpaceOnUse"
       gradientTransform="scale(0.972343,1.028444)"
       x1="371.22302"
       y1="211.30777"
       x2="274.47937"
       y2="216.5305" />
    <linearGradient
       id="linearGradient11116"
       inkscape:collect="always">
      <stop
         id="stop11117"
         offset="0"
         style="stop-color:#000000;stop-opacity:1;" />
      <stop
         id="stop11118"
         offset="1"
         style="stop-color:#000000;stop-opacity:0;" />
    </linearGradient>
    <linearGradient
       inkscape:collect="always"
       xlink:href="#linearGradient14252"
       id="linearGradient9395"
       gradientUnits="userSpaceOnUse"
       gradientTransform="matrix(0.549997,0,0,0.496439,-58.22604,-22.85128)"
       x1="392.50446"
       y1="362.68777"
       x2="276.09256"
       y2="358.97195" />
    <linearGradient
       id="linearGradient14252">
      <stop
         id="stop14253"
         offset="0.0000000"
         style="stop-color:#000000;stop-opacity:1.0000000;" />
      <stop
         id="stop14254"
         offset="1.0000000"
         style="stop-color:#303030;stop-opacity:1.0000000;" />
    </linearGradient>
    <linearGradient
       inkscape:collect="always"
       xlink:href="#linearGradient5018"
       id="linearGradient8072"
       gradientUnits="userSpaceOnUse"
       x1="50.651741"
       y1="965.25763"
       x2="45.15498"
       y2="926.84485" />
    <linearGradient
       id="linearGradient5018"
       inkscape:collect="always">
      <stop
         id="stop5020"
         offset="0"
         style="stop-color:#fdd541;stop-opacity:1;" />
      <stop
         id="stop5022"
         offset="1"
         style="stop-color:white;stop-opacity:1" />
    </linearGradient>
    <linearGradient
       inkscape:collect="always"
       xlink:href="#linearGradient5018"
       id="linearGradient8074"
       gradientUnits="userSpaceOnUse"
       x1="50.651741"
       y1="965.25763"
       x2="45.15498"
       y2="926.84485" />
    <linearGradient
       inkscape:collect="always"
       xlink:href="#linearGradient5018"
       id="linearGradient8076"
       gradientUnits="userSpaceOnUse"
       x1="50.651741"
       y1="965.25763"
       x2="45.15498"
       y2="926.84485" />
    <linearGradient
       inkscape:collect="always"
       xlink:href="#linearGradient5018"
       id="linearGradient8078"
       gradientUnits="userSpaceOnUse"
       x1="50.651741"
       y1="965.25763"
       x2="45.15498"
       y2="926.84485" />
    <linearGradient
       inkscape:collect="always"
       xlink:href="#linearGradient5018"
       id="linearGradient8080"
       gradientUnits="userSpaceOnUse"
       x1="50.651741"
       y1="965.25763"
       x2="45.15498"
       y2="926.84485" />
    <linearGradient
       inkscape:collect="always"
       xlink:href="#linearGradient5018"
       id="linearGradient8082"
       gradientUnits="userSpaceOnUse"
       x1="50.651741"
       y1="965.25763"
       x2="45.15498"
       y2="926.84485" />
    <linearGradient
       inkscape:collect="always"
       xlink:href="#linearGradient12377"
       id="linearGradient9378"
       gradientUnits="userSpaceOnUse"
       gradientTransform="matrix(0.421122,0,0,0.648362,-58.22604,-22.85128)"
       x1="457.95407"
       y1="321.26181"
       x2="684.51758"
       y2="321.26181" />
    <linearGradient
       id="linearGradient5147">
      <stop
         id="stop5149"
         offset="0.0000000"
         style="stop-color:#ffffff;stop-opacity:1.0000000;" />
      <stop
         id="stop5151"
         offset="1.0000000"
         style="stop-color:#c8c8c8;stop-opacity:1.0000000;" />
    </linearGradient>
    <linearGradient
       inkscape:collect="always"
       xlink:href="#linearGradient11752"
       id="linearGradient9375"
       gradientUnits="userSpaceOnUse"
       gradientTransform="matrix(0.710124,0,0,0.384496,-58.22604,-22.85128)"
       x1="280.17413"
       y1="348.70358"
       x2="243.94989"
       y2="344.28131" />
    <linearGradient
       id="linearGradient11752">
      <stop
         id="stop11753"
         offset="0.0000000"
         style="stop-color:#ffcf2f;stop-opacity:1.0000000;" />
      <stop
         id="stop11754"
         offset="1.0000000"
         style="stop-color:#faee89;stop-opacity:1.0000000;" />
    </linearGradient>
  </defs>
  <sodipodi:namedview
     id="base"
     pagecolor="#ffffff"
     bordercolor="#666666"
     borderopacity="1.0"
     inkscape:pageopacity="0.0"
     inkscape:pageshadow="2"
     inkscape:zoom="0.35"
     inkscape:cx="-346.05568"
     inkscape:cy="-257.37078"
     inkscape:document-units="px"
     inkscape:current-layer="layer1"
     showgrid="false"
     inkscape:window-width="555"
     inkscape:window-height="483"
     inkscape:window-x="72"
     inkscape:window-y="540"
     inkscape:window-maximized="0" />
  <metadata
     id="metadata5189">
    <rdf:RDF>
      <cc:Work
         rdf:about="">
        <dc:format>image/svg+xml</dc:format>
        <dc:type
           rdf:resource="http://purl.org/dc/dcmitype/StillImage" />
        <dc:title></dc:title>
      </cc:Work>
    </rdf:RDF>
  </metadata>
  <g
     inkscape:label="Layer 1"
     inkscape:groupmode="layer"
     id="layer1"
     transform="translate(-721.05568,-206.87582)">
    <g
       id="g12058"
       transform="matrix(0.243355,0,0,0.243355,711.40093,195.84655)"
       inkscape:export-filename="/home/tim/src/tuxmath/trunk/data/images/penguins/sitting-down.png"
       inkscape:export-xdpi="89.847542"
       inkscape:export-ydpi="89.847542">
      <path
         d="m 95.594341,118.16037 c 0,0 -9.144312,-72.174744 35.597499,-72.827911 44.74181,-0.653162 49.31396,28.739267 49.31396,28.739267 0,0 7.83799,42.455724 4.57216,51.926624 -3.26582,9.47089 -90.789948,8.81773 -90.789948,8.81773 l 1.306329,-16.65571 z"
         id="path3097"
         style="fill:#000000;fill-opacity:1;fill-rule:evenodd;stroke:none" />
      <path
         d="m 368.70567,206.24959 c 0.77426,15.15748 -8.51191,28.223 -20.74125,29.18264 -12.22933,0.95965 -22.77082,-10.54997 -23.54509,-25.70745 -0.77426,-15.15748 8.51191,-28.223 20.74125,-29.18265 12.03476,-0.94438 22.4747,10.19776 23.50784,25.08901"
         id="path3099"
         sodipodi:cx="346.5625"
         sodipodi:cy="207.98718"
         sodipodi:end="12.480591"
         sodipodi:open="true"
         sodipodi:rx="22.1875"
         sodipodi:ry="27.5"
         sodipodi:start="6.2199579"
         sodipodi:type="arc"
         style="color:#000000;fill:url(#linearGradient8062);fill-opacity:1;fill-rule:nonzero;stroke:none;stroke-width:1;marker:none;visibility:visible;display:block"
         transform="matrix(0.471016,0,0,0.486906,-44.45495,-17.07444)" />
      <path
         transform="matrix(0.522532,0,0,0.522532,-58.22604,-22.85128)"
         d="m 352.46753,215.96369 c 0.56706,9.47342 -6.23407,17.63937 -15.19077,18.23915 -8.95669,0.59978 -16.67723,-6.59373 -17.24429,-16.06716 -0.56706,-9.47343 6.23407,-17.63937 15.19077,-18.23915 8.81419,-0.59024 16.46035,6.3736 17.21701,15.68062"
         id="path3101"
         sodipodi:cx="336.25"
         sodipodi:cy="217.04968"
         sodipodi:end="12.480591"
         sodipodi:open="true"
         sodipodi:rx="16.25"
         sodipodi:ry="17.1875"
         sodipodi:start="6.2199579"
         sodipodi:type="arc"
         style="color:#000000;fill:url(#linearGradient8064);fill-opacity:1;fill-rule:nonzero;stroke:none;stroke-width:1;marker:none;visibility:visible;display:block" />
      <path
         d="m 368.70567,206.24959 c 0.77426,15.15748 -8.51191,28.223 -20.74125,29.18264 -12.22933,0.95965 -22.77082,-10.54997 -23.54509,-25.70745 -0.77426,-15.15748 8.51191,-28.223 20.74125,-29.18265 12.03476,-0.94438 22.4747,10.19776 23.50784,25.08901"
         id="path3103"
         sodipodi:cx="346.5625"
         sodipodi:cy="207.98718"
         sodipodi:end="12.480591"
         sodipodi:open="true"
         sodipodi:rx="22.1875"
         sodipodi:ry="27.5"
         sodipodi:start="6.2199579"
         sodipodi:type="arc"
         style="color:#000000;fill:url(#linearGradient8066);fill-opacity:1;fill-rule:nonzero;stroke:none;stroke-width:1;marker:none;visibility:visible;display:block"
         transform="matrix(0.471016,0,0,0.486906,-11.7967,-16.09468)" />
      <path
         d="m 352.46753,215.96369 c 0.56706,9.47342 -6.23407,17.63937 -15.19077,18.23915 -8.95669,0.59978 -16.67723,-6.59373 -17.24429,-16.06716 -0.56706,-9.47343 6.23407,-17.63937 15.19077,-18.23915 8.81419,-0.59024 16.46035,6.3736 17.21701,15.68062"
         id="path3105"
         sodipodi:cx="336.25"
         sodipodi:cy="217.04968"
         sodipodi:end="12.480591"
         sodipodi:open="true"
         sodipodi:rx="16.25"
         sodipodi:ry="17.1875"
         sodipodi:start="6.2199579"
         sodipodi:type="arc"
         style="color:#000000;fill:url(#linearGradient8068);fill-opacity:1;fill-rule:nonzero;stroke:none;stroke-width:1;marker:none;visibility:visible;display:block"
         transform="matrix(0.522532,0,0,0.522532,-25.89438,-23.17786)" />
      <path
         sodipodi:nodetypes="csscscc"
         d="m 183.77251,125.40817 c 0,0 -0.69603,-4.76761 6.14967,-0.27059 6.8457,4.49702 55.82529,50.03994 51.9297,71.00674 -3.89559,20.96678 -8.02021,21.48233 -8.02021,21.48233 0,0 -55.71064,-64.01781 -51.27091,-71.3218 4.43974,-7.30399 -13.14708,-25.12014 -13.14708,-25.12014 l 14.35883,4.22346 z"
         id="path3107"
         style="fill:#000000;fill-opacity:1;fill-rule:evenodd;stroke:#000000;stroke-width:0.13063302pt;stroke-linecap:butt;stroke-linejoin:miter;stroke-opacity:1" />
      <path
         d="m 87.756363,141.67431 c 0,0 -11.43039,21.55445 -9.144313,30.69876 2.286077,9.14431 -6.858236,62.37726 -6.858236,62.37726 l 99.607676,2.61267 31.02534,-82.95197 -19.92153,-24.49369 -5.87848,-10.45064 -32.33168,14.69621 -49.967128,1.30633"
         id="path3109"
         style="fill:url(#linearGradient9395);fill-opacity:1;fill-rule:evenodd;stroke:none" />
      <path
         sodipodi:nodetypes="csscscc"
         d="m 103.03515,130.46062 c 0,0 -0.0159,-2.06548 -7.121919,2.00775 -7.106025,4.07323 -58.759543,46.55938 -56.143716,67.72396 2.615828,21.16458 6.701555,21.92952 6.701555,21.92952 0,0 59.49348,-60.51844 55.50525,-68.07843 -3.98823,-7.55999 14.64752,-24.27587 14.64752,-24.27587 l -13.58869,0.69307 z"
         id="path3111"
         style="fill:#000000;fill-opacity:1;fill-rule:evenodd;stroke:none" />
      <path
         sodipodi:nodetypes="csczzscc"
         d="m 200.42734,158.00344 c 0,0 7.69738,52.8678 3.92054,76.74689 -2.22388,14.06051 -7.64325,18.07103 -21.21028,33.26837 -27.30532,10.64253 -69.43274,11.36867 -87.057543,0.41145 -17.6248,-10.95723 -19.116471,-19.27908 -23.649156,-35.97546 -4.606993,-16.9701 -2.309996,-50.61072 7.487478,-73.14492 9.79748,-22.5342 86.217791,-6.20507 86.217791,-6.20507 l 34.29117,4.89874 z"
         id="path3113"
         style="fill:#000000;fill-opacity:1;fill-rule:evenodd;stroke:none" />
      <g
         transform="matrix(0.534511,0,0,0.534511,185.1311,-163.9194)"
         id="g5034">
        <path
           transform="translate(10,4)"
           style="fill:#000000;fill-opacity:1;stroke:none"
           d="m -160.39166,760.75064 c 18.30304,-10.40812 45.17788,26.66888 43.43688,58.06015 -2.06532,37.23906 -2.74319,43.22076 -21.04623,53.62888 -18.30304,10.40812 -42.75383,-6.16306 -44.35301,-36.98923 -1.60936,-31.02229 3.37558,-63.48284 21.34227,-74.33624"
           id="path3167"
           sodipodi:nodetypes="csssc" />
        <path
           transform="matrix(1.034022,0,0,1.432408,-220.7731,-475.4827)"
           style="fill:#fdd541;fill-opacity:1;stroke:none"
           d="m 88.015108,926.60877 c 10.971894,0.0902 23.731252,4.23388 25.782602,13.93915 2.05136,9.70528 -1.28938,19.85555 -11.88588,21.72576 -21.192997,3.74041 -61.113599,-2.34892 -61.101941,-14.57215 0.01776,-19.26026 25.253637,-21.2732 47.205219,-21.09276 z"
           id="path3193"
           sodipodi:nodetypes="csssz" />
        <path
           sodipodi:type="arc"
           style="fill:url(#linearGradient8072);fill-opacity:1;stroke:#000000;stroke-width:0.60000002;stroke-linecap:round;stroke-miterlimit:4;stroke-opacity:1;stroke-dasharray:none;stroke-dashoffset:0"
           id="path3187"
           sodipodi:cx="50.65308"
           sodipodi:cy="957.50281"
           sodipodi:rx="19.340267"
           sodipodi:ry="23.024126"
           d="m 44.46619,935.68854 c 10.120056,-4.06776 21.093947,2.40124 24.510872,14.44892 3.416925,12.04769 -2.017036,25.11184 -12.137092,29.17961 -10.120056,4.06777 -21.093947,-2.40123 -24.510872,-14.44892 -3.371682,-11.88816 1.873367,-24.80136 11.794412,-29.03759"
           sodipodi:start="4.3867684"
           sodipodi:end="10.651192"
           sodipodi:open="true"
           transform="translate(-218.0382,-70.20629)" />
        <path
           sodipodi:type="arc"
           style="fill:url(#linearGradient8074);fill-opacity:1;stroke:#000000;stroke-width:0.60000002;stroke-linecap:round;stroke-miterlimit:4;stroke-opacity:1;stroke-dasharray:none;stroke-dashoffset:0"
           id="path5024"
           sodipodi:cx="50.65308"
           sodipodi:cy="957.50281"
           sodipodi:rx="19.340267"
           sodipodi:ry="23.024126"
           d="m 44.46619,935.68854 c 10.120056,-4.06776 21.093947,2.40124 24.510872,14.44892 3.416925,12.04769 -2.017036,25.11184 -12.137092,29.17961 -10.120056,4.06777 -21.093947,-2.40123 -24.510872,-14.44892 -3.371682,-11.88816 1.873367,-24.80136 11.794412,-29.03759"
           sodipodi:start="4.3867684"
           sodipodi:end="10.651192"
           sodipodi:open="true"
           transform="translate(-199.0643,-68.21124)" />
        <path
           sodipodi:type="arc"
           style="fill:url(#linearGradient8076);fill-opacity:1;stroke:#000000;stroke-width:0.60000002;stroke-linecap:round;stroke-miterlimit:4;stroke-opacity:1;stroke-dasharray:none;stroke-dashoffset:0"
           id="path5028"
           sodipodi:cx="50.65308"
           sodipodi:cy="957.50281"
           sodipodi:rx="19.340267"
           sodipodi:ry="23.024126"
           d="m 44.46619,935.68854 c 10.120056,-4.06776 21.093947,2.40124 24.510872,14.44892 3.416925,12.04769 -2.017036,25.11184 -12.137092,29.17961 -10.120056,4.06777 -21.093947,-2.40123 -24.510872,-14.44892 -3.371682,-11.88816 1.873367,-24.80136 11.794412,-29.03759"
           sodipodi:start="4.3867684"
           sodipodi:end="10.651192"
           sodipodi:open="true"
           transform="matrix(1.116581,0,0,1.116581,-178.8597,-180.2023)" />
      </g>
      <g
         transform="matrix(-0.534511,0,0,0.534511,93.45931,-166.0023)"
         id="g5041">
        <path
           transform="translate(10,4)"
           style="fill:#000000;fill-opacity:1;stroke:none"
           d="m -160.39166,760.75064 c 18.30304,-10.40812 45.17788,26.66888 43.43688,58.06015 -2.06532,37.23906 -2.74319,43.22076 -21.04623,53.62888 -18.30304,10.40812 -42.75383,-6.16306 -44.35301,-36.98923 -1.60936,-31.02229 3.37558,-63.48284 21.34227,-74.33624"
           id="path5043"
           sodipodi:nodetypes="csssc" />
        <path
           transform="matrix(1.034022,0,0,1.432408,-220.7731,-475.4827)"
           style="fill:#fdd541;fill-opacity:1;stroke:none"
           d="m 88.015108,926.60877 c 10.971894,0.0902 23.731252,4.23388 25.782602,13.93915 2.05136,9.70528 -1.28938,19.85555 -11.88588,21.72576 -21.192997,3.74041 -61.113599,-2.34892 -61.101941,-14.57215 0.01776,-19.26026 25.253637,-21.2732 47.205219,-21.09276 z"
           id="path5045"
           sodipodi:nodetypes="csssz" />
        <path
           sodipodi:type="arc"
           style="fill:url(#linearGradient8078);fill-opacity:1;stroke:#000000;stroke-width:0.60000002;stroke-linecap:round;stroke-miterlimit:4;stroke-opacity:1;stroke-dasharray:none;stroke-dashoffset:0"
           id="path5047"
           sodipodi:cx="50.65308"
           sodipodi:cy="957.50281"
           sodipodi:rx="19.340267"
           sodipodi:ry="23.024126"
           d="m 44.46619,935.68854 c 10.120056,-4.06776 21.093947,2.40124 24.510872,14.44892 3.416925,12.04769 -2.017036,25.11184 -12.137092,29.17961 -10.120056,4.06777 -21.093947,-2.40123 -24.510872,-14.44892 -3.371682,-11.88816 1.873367,-24.80136 11.794412,-29.03759"
           sodipodi:start="4.3867684"
           sodipodi:end="10.651192"
           sodipodi:open="true"
           transform="translate(-218.0382,-70.20629)" />
        <path
           sodipodi:type="arc"
           style="fill:url(#linearGradient8080);fill-opacity:1;stroke:#000000;stroke-width:0.60000002;stroke-linecap:round;stroke-miterlimit:4;stroke-opacity:1;stroke-dasharray:none;stroke-dashoffset:0"
           id="path5049"
           sodipodi:cx="50.65308"
           sodipodi:cy="957.50281"
           sodipodi:rx="19.340267"
           sodipodi:ry="23.024126"
           d="m 44.46619,935.68854 c 10.120056,-4.06776 21.093947,2.40124 24.510872,14.44892 3.416925,12.04769 -2.017036,25.11184 -12.137092,29.17961 -10.120056,4.06777 -21.093947,-2.40123 -24.510872,-14.44892 -3.371682,-11.88816 1.873367,-24.80136 11.794412,-29.03759"
           sodipodi:start="4.3867684"
           sodipodi:end="10.651192"
           sodipodi:open="true"
           transform="translate(-199.0643,-68.21124)" />
        <path
           sodipodi:type="arc"
           style="fill:url(#linearGradient8082);fill-opacity:1;stroke:#000000;stroke-width:0.60000002;stroke-linecap:round;stroke-miterlimit:4;stroke-opacity:1;stroke-dasharray:none;stroke-dashoffset:0"
           id="path5051"
           sodipodi:cx="50.65308"
           sodipodi:cy="957.50281"
           sodipodi:rx="19.340267"
           sodipodi:ry="23.024126"
           d="m 44.46619,935.68854 c 10.120056,-4.06776 21.093947,2.40124 24.510872,14.44892 3.416925,12.04769 -2.017036,25.11184 -12.137092,29.17961 -10.120056,4.06777 -21.093947,-2.40123 -24.510872,-14.44892 -3.371682,-11.88816 1.873367,-24.80136 11.794412,-29.03759"
           sodipodi:start="4.3867684"
           sodipodi:end="10.651192"
           sodipodi:open="true"
           transform="matrix(1.116581,0,0,1.116581,-178.8597,-180.2023)" />
      </g>
      <path
         d="m 136.41716,256.30478 c 0,0 89.8102,-2.61265 40.16966,-115.61022 -49.64055,-112.997554 -82.298808,16.00255 -82.298808,16.00255 0,0 -34.94433,96.34185 42.129148,99.60767 z"
         id="path3127"
         style="fill:url(#linearGradient9378);fill-opacity:1;fill-rule:evenodd;stroke:#000000;stroke-width:0.13063302pt;stroke-linecap:butt;stroke-linejoin:miter;stroke-opacity:1" />
      <path
         d="m 105.7184,103.79074 c 0,0 17.63546,-12.083556 29.71901,-10.124066 12.08356,1.959496 28.73927,5.225321 30.69876,8.491156 1.9595,3.26582 11.75697,16.98229 -5.87848,22.53419 -17.63546,5.5519 -45.72156,9.14431 -53.55954,-5.22532 -7.837984,-14.36964 2.61266,-18.61521 2.61266,-18.61521"
         id="path3129"
         style="fill:url(#linearGradient9375);fill-opacity:1;fill-rule:evenodd;stroke:#000000;stroke-width:0.13063302pt;stroke-linecap:butt;stroke-linejoin:miter;stroke-opacity:1" />
      <path
         d="m 108.33106,111.30213 c 0,0 23.84053,11.43039 54.53929,0.65317"
         id="path3131"
         style="fill:none;stroke:#000000;stroke-width:1.29999995;stroke-linecap:butt;stroke-linejoin:miter;stroke-miterlimit:4;stroke-opacity:1;stroke-dasharray:none" />
      <path
         d="m 123.68044,98.891995 c 1.09919,0.106469 2.85767,-0.775666 3.91899,-1.306329"
         id="path3133"
         style="fill:none;stroke:#000000;stroke-width:1.29999995;stroke-linecap:butt;stroke-linejoin:miter;stroke-miterlimit:4;stroke-opacity:1;stroke-dasharray:none" />
      <path
         d="m 138.05007,97.912247 c 0.20664,-0.212874 2.03524,0.854331 2.93925,1.306334"
         id="path3135"
         style="fill:none;stroke:#000000;stroke-width:1.29999995;stroke-linecap:butt;stroke-linejoin:miter;stroke-miterlimit:4;stroke-opacity:1;stroke-dasharray:none" />
    </g>
  </g>
</svg>
