<?xml version="1.0" encoding="UTF-8" standalone="no"?>
<!-- Created with Inkscape (http://www.inkscape.org/) -->

<svg
   xmlns:dc="http://purl.org/dc/elements/1.1/"
   xmlns:cc="http://creativecommons.org/ns#"
   xmlns:rdf="http://www.w3.org/1999/02/22-rdf-syntax-ns#"
   xmlns:svg="http://www.w3.org/2000/svg"
   xmlns="http://www.w3.org/2000/svg"
   xmlns:xlink="http://www.w3.org/1999/xlink"
   xmlns:sodipodi="http://sodipodi.sourceforge.net/DTD/sodipodi-0.dtd"
   xmlns:inkscape="http://www.inkscape.org/namespaces/inkscape"
   width="32.895237"
   height="65.749283"
   id="svg6462"
   version="1.1"
   inkscape:version="0.47 r22583"
   sodipodi:docname="New document 35">
  <defs
     id="defs6464">
    <inkscape:perspective
       sodipodi:type="inkscape:persp3d"
       inkscape:vp_x="0 : 526.18109 : 1"
       inkscape:vp_y="0 : 1000 : 0"
       inkscape:vp_z="744.09448 : 526.18109 : 1"
       inkscape:persp3d-origin="372.04724 : 350.78739 : 1"
       id="perspective6470" />
    <inkscape:perspective
       id="perspective6413"
       inkscape:persp3d-origin="0.5 : 0.33333333 : 1"
       inkscape:vp_z="1 : 0.5 : 1"
       inkscape:vp_y="0 : 1000 : 0"
       inkscape:vp_x="0 : 0.5 : 1"
       sodipodi:type="inkscape:persp3d" />
    <linearGradient
       inkscape:collect="always"
       xlink:href="#linearGradient11752"
       id="linearGradient4089"
       gradientUnits="userSpaceOnUse"
       gradientTransform="matrix(-0.658741,0.14727,0.158825,0.425808,693.7206,415.3364)"
       x1="244.13411"
       y1="588.20197"
       x2="205.89403"
       y2="536.39093" />
    <linearGradient
       id="linearGradient11752">
      <stop
         id="stop11753"
         offset="0.0000000"
         style="stop-color:#ffcf2f;stop-opacity:1.0000000;" />
      <stop
         id="stop11754"
         offset="1.0000000"
         style="stop-color:#faee89;stop-opacity:1.0000000;" />
    </linearGradient>
    <linearGradient
       inkscape:collect="always"
       xlink:href="#linearGradient11752"
       id="linearGradient4091"
       gradientUnits="userSpaceOnUse"
       gradientTransform="matrix(-0.889997,0,0,1.073801,738.2729,233.5941)"
       x1="296.59113"
       y1="486.3443"
       x2="274.23395"
       y2="438.15631" />
    <linearGradient
       id="linearGradient6422">
      <stop
         id="stop6424"
         offset="0.0000000"
         style="stop-color:#ffcf2f;stop-opacity:1.0000000;" />
      <stop
         id="stop6426"
         offset="1.0000000"
         style="stop-color:#faee89;stop-opacity:1.0000000;" />
    </linearGradient>
    <linearGradient
       inkscape:collect="always"
       xlink:href="#linearGradient11752"
       id="linearGradient4093"
       gradientUnits="userSpaceOnUse"
       gradientTransform="matrix(-0.68354,0,0,1.398134,738.2729,233.5941)"
       x1="281.33209"
       y1="368.06802"
       x2="263.86984"
       y2="358.0683" />
    <linearGradient
       id="linearGradient6429">
      <stop
         id="stop6431"
         offset="0.0000000"
         style="stop-color:#ffcf2f;stop-opacity:1.0000000;" />
      <stop
         id="stop6433"
         offset="1.0000000"
         style="stop-color:#faee89;stop-opacity:1.0000000;" />
    </linearGradient>
    <linearGradient
       inkscape:collect="always"
       xlink:href="#linearGradient11752"
       id="linearGradient4095"
       gradientUnits="userSpaceOnUse"
       gradientTransform="matrix(-1.028081,0,0,0.929577,738.2729,233.5941)"
       x1="244.13411"
       y1="588.20197"
       x2="205.89403"
       y2="536.39093" />
    <linearGradient
       id="linearGradient6436">
      <stop
         id="stop6438"
         offset="0.0000000"
         style="stop-color:#ffcf2f;stop-opacity:1.0000000;" />
      <stop
         id="stop6440"
         offset="1.0000000"
         style="stop-color:#faee89;stop-opacity:1.0000000;" />
    </linearGradient>
  </defs>
  <sodipodi:namedview
     id="base"
     pagecolor="#ffffff"
     bordercolor="#666666"
     borderopacity="1.0"
     inkscape:pageopacity="0.0"
     inkscape:pageshadow="2"
     inkscape:zoom="0.35"
     inkscape:cx="37.161903"
     inkscape:cy="10.017502"
     inkscape:document-units="px"
     inkscape:current-layer="layer1"
     showgrid="false"
     inkscape:window-width="555"
     inkscape:window-height="483"
     inkscape:window-x="72"
     inkscape:window-y="540"
     inkscape:window-maximized="0" />
  <metadata
     id="metadata6467">
    <rdf:RDF>
      <cc:Work
         rdf:about="">
        <dc:format>image/svg+xml</dc:format>
        <dc:type
           rdf:resource="http://purl.org/dc/dcmitype/StillImage" />
        <dc:title></dc:title>
      </cc:Work>
    </rdf:RDF>
  </metadata>
  <g
     inkscape:label="Layer 1"
     inkscape:groupmode="layer"
     id="layer1"
     transform="translate(-337.8381,-476.6304)">
    <g
       transform="translate(-169.84817,-130.77671)"
       id="g4162"
       inkscape:export-xdpi="90.342751"
       inkscape:export-ydpi="90.342751"
       inkscape:export-filename="/home/tim/src/tuxmath/trunk/data/images/penguins/walk-on2.png">
      <g
         transform="matrix(0.17339,0.122787,-0.122381,0.173965,496.6731,470.7872)"
         id="g4035">
        <path
           sodipodi:type="arc"
           style="fill:#000000;fill-opacity:1;stroke:none"
           id="path4037"
           sodipodi:cx="326.42856"
           sodipodi:cy="714.50507"
           sodipodi:rx="29.285715"
           sodipodi:ry="65"
           d="m 317.06015,652.92066 c 15.32415,-11.48382 31.9412,6.77898 37.11523,40.79111 5.17403,34.01213 -3.05427,70.89388 -18.37841,82.3777 -15.32415,11.48382 -31.9412,-6.77898 -37.11523,-40.79111 -5.10552,-33.56178 2.83672,-70.01736 17.85951,-81.97677"
           sodipodi:start="4.3867684"
           sodipodi:end="10.651192"
           sodipodi:open="true"
           transform="matrix(0.468896,-0.228669,0.344261,0.481733,192.9453,392.4015)" />
        <path
           style="fill:url(#linearGradient4089);fill-opacity:1;fill-rule:evenodd;stroke:#000000;stroke-width:0.1378147pt;stroke-linecap:butt;stroke-linejoin:miter;stroke-opacity:1"
           id="path4039"
           d="m 621.18925,659.80434 c -8.58422,7.22619 -16.56504,21.63367 -20.39525,30.14917 4.10323,5.84402 9.59967,12.13306 20.49718,17.75923 1.7731,0.9154 3.08551,1.64155 6.19773,-1.32278 9.05078,-8.62076 32.41474,-29.10187 35.30892,-35.33403 5.41788,-11.66655 -4.3484,-15.86122 -10.88948,-18.72564 -4.70551,-2.0606 -11.68863,-1.74772 -15.19833,-0.71074 -3.50969,1.03695 -7.20716,1.18642 -15.52077,8.18479 z"
           sodipodi:nodetypes="ccssssss" />
      </g>
      <path
         sodipodi:nodetypes="cscssscsssc"
         id="path4041"
         d="m 521.85308,607.40742 c -2.00549,0.016 -4.10609,0.34217 -6.13721,0.89798 -6.76192,1.85035 -5.68522,13.71169 -4.21932,22.03807 -2.78721,7.37925 -1.35841,8.48163 -3.17924,16.23402 -3.54137,15.07786 8.61917,17.49644 16.64405,16.83636 8.08107,-0.6647 16.44312,-5.4677 8.75609,-24.47544 -1.16972,-2.8924 -1.97234,-5.64171 -3.53153,-7.71908 0.73267,-1.10291 1.40329,-2.53196 2.30586,-4.16255 1.73856,-3.14088 0.90981,-8.47017 0.1014,-12.35495 -0.5571,-2.67716 -1.96085,-3.98704 -3.86595,-5.14648 -1.90511,-1.15944 -4.31159,-2.16845 -6.87415,-2.14793 z"
         style="fill:#000000;fill-opacity:1;stroke:none" />
      <path
         transform="matrix(0.100107,-0.01612306,0.02306395,0.144156,470.9188,562.8618)"
         sodipodi:open="true"
         sodipodi:end="10.651192"
         sodipodi:start="4.3867684"
         d="m 463.37542,513.33124 c 20.18302,-17.66742 42.06889,10.4292 48.88347,62.75556 6.81457,52.32635 -4.0227,109.0675 -24.20572,126.73492 -20.18302,17.66741 -42.0689,-10.42921 -48.88347,-62.75556 -6.72434,-51.6335 3.73617,-107.71901 23.52229,-126.1181"
         sodipodi:ry="100"
         sodipodi:rx="38.57143"
         sodipodi:cy="608.07648"
         sodipodi:cx="475.71429"
         id="path4043"
         style="fill:#f9f9f9;fill-opacity:1;stroke:#000000;stroke-width:0.80000001;stroke-linecap:round;stroke-miterlimit:4;stroke-opacity:1;stroke-dasharray:none;stroke-dashoffset:0"
         sodipodi:type="arc" />
      <path
         sodipodi:nodetypes="ccscscc"
         id="path4045"
         d="m 530.79577,624.22465 c 0.86758,-0.52947 3.16911,-0.46891 3.17992,-0.49547 1.07198,0.11563 4.23399,0.50463 4.88411,0.73525 1.30023,0.46126 1.80546,1.27199 1.71054,2.91017 -0.2033,2.9703 -1.39964,3.31559 -3.09821,3.47514 -4.87154,0.45759 -3.93771,0.11164 -8.22157,-0.23975 -0.42817,-3.18958 -0.79258,-2.37657 1.54521,-6.38534 z"
         style="fill:#fdd541;fill-opacity:1;stroke:none" />
      <path
         transform="matrix(0.192375,0,0,0.114851,438.4628,572.8982)"
         sodipodi:open="true"
         sodipodi:end="10.651192"
         sodipodi:start="4.3867684"
         d="m 466.40161,367.20864 c 8.22271,-6.68838 17.13918,3.9482 19.91549,23.75746 2.7763,19.80926 -1.63888,41.28984 -9.86159,47.97822 -8.22271,6.68838 -17.13918,-3.9482 -19.91549,-23.75746 -2.73955,-19.54697 1.52214,-40.77934 9.58316,-47.74471"
         sodipodi:ry="37.857143"
         sodipodi:rx="15.714286"
         sodipodi:cy="403.07648"
         sodipodi:cx="471.42856"
         id="path4047"
         style="fill:#ffffff;fill-opacity:1;stroke:none"
         sodipodi:type="arc" />
      <path
         transform="matrix(0.338548,0,0,0.148085,367.9004,559.6641)"
         sodipodi:open="true"
         sodipodi:end="10.651192"
         sodipodi:start="4.3867684"
         d="m 476.28646,394.76664 c 3.7376,-3.28109 7.79054,1.93685 9.0525,11.6546 1.26196,9.71775 -0.74494,20.2554 -4.48254,23.53649 -3.7376,3.28109 -7.79054,-1.93686 -9.0525,-11.65461 -1.24524,-9.58908 0.69189,-20.00496 4.35598,-23.42193"
         sodipodi:ry="18.571428"
         sodipodi:rx="7.1428571"
         sodipodi:cy="412.36218"
         sodipodi:cx="478.57144"
         id="path4049"
         style="fill:#333333;fill-opacity:1;stroke:none"
         sodipodi:type="arc" />
      <path
         id="path4051"
         d="m 539.62728,625.72637 -0.5987,0.35495"
         style="fill:none;stroke:#000000;stroke-width:0.31787944;stroke-linecap:butt;stroke-linejoin:miter;stroke-miterlimit:4;stroke-opacity:1;stroke-dasharray:none" />
      <g
         transform="matrix(0.09424151,0.190787,-0.190156,0.09455421,557.1281,494.7309)"
         id="g4055">
        <path
           sodipodi:type="arc"
           style="fill:#000000;fill-opacity:1;stroke:#ffffff;stroke-width:1.6000005;stroke-linecap:round;stroke-miterlimit:4;stroke-opacity:1;stroke-dasharray:none;stroke-dashoffset:0"
           id="path4057"
           sodipodi:cx="474.28571"
           sodipodi:cy="730.93359"
           sodipodi:rx="52.857143"
           sodipodi:ry="28.571428"
           d="m 457.37687,703.86353 c 27.65822,-5.04784 57.64997,2.97977 66.98846,17.93015 9.33849,14.95039 -5.51258,31.16215 -33.17079,36.20998 -27.65822,5.04783 -57.64997,-2.97977 -66.98846,-17.93016 -9.21484,-14.75243 5.11993,-30.77686 32.23425,-36.03374"
           sodipodi:start="4.3867684"
           sodipodi:end="10.651192"
           sodipodi:open="true"
           transform="matrix(0.573772,0.335733,-0.335733,0.573772,576.538,-74.62652)" />
        <g
           id="g4059"
           transform="matrix(0.471556,0.282432,-0.22979,0.579583,578.1783,-57.64035)">
          <path
             d="m 534.20117,716.14398 c -7.94291,-18.94079 -14.05285,-22.60675 -14.05285,-22.60675 l -14.66383,4.27695 -23.21774,63.54329 53.1564,-19.55178 3.05497,-25.05072"
             id="path4061"
             style="fill:url(#linearGradient4091);fill-opacity:1;fill-rule:evenodd;stroke:#000000;stroke-width:0;stroke-linecap:butt;stroke-linejoin:miter;stroke-miterlimit:4;stroke-opacity:1" />
          <path
             d="m 541.53308,758.3025 c 0,0 27.49469,-24.43972 18.3298,-39.10356 -9.1649,-14.66383 -18.3298,39.10356 -18.3298,39.10356 z"
             id="path4063"
             style="fill:url(#linearGradient4093);fill-opacity:1;fill-rule:evenodd;stroke:#000000;stroke-width:0.24439726pt;stroke-linecap:butt;stroke-linejoin:miter;stroke-opacity:1" />
          <path
             d="m 510.98343,752.19257 c 0,0 34.21561,-67.20924 -8.55391,-58.65534 -42.76952,8.55391 -76.98513,92.25996 -51.32342,100.20287 25.66171,7.94291 83.70606,-13.44184 90.42698,-36.65958 6.72093,-23.21774 35.4376,-53.7674 9.1649,-64.76527 -26.2727,-10.99788 -34.21561,0.61099 -34.21561,0.61099"
             id="path4065"
             style="fill:url(#linearGradient4095);fill-opacity:1;fill-rule:evenodd;stroke:#000000;stroke-width:0.24439726pt;stroke-linecap:butt;stroke-linejoin:miter;stroke-opacity:1" />
        </g>
        <rect
           style="fill:#000000;fill-opacity:1;stroke:none"
           id="rect4067"
           width="27.840729"
           height="54.811432"
           x="569.48468"
           y="456.71613" />
      </g>
      <path
         d="m 524.11945,628.86375 c 0,0 -2.74269,2.19599 -1.5647,3.24609 1.178,1.0501 8.42607,11.7294 5.67863,16.70373 -2.74743,4.97434 -3.74192,5.10547 -3.74192,5.10547 0,0 -7.16558,-15.0402 -5.49923,-16.7798 1.66633,-1.7396 -0.80699,-5.92073 -0.80699,-5.92073 l 5.93421,-2.35476 z"
         id="path4069"
         style="fill:#000000;fill-opacity:1;fill-rule:evenodd;stroke:#ffffff;stroke-width:0.20099232;stroke-linecap:butt;stroke-linejoin:miter;stroke-miterlimit:4;stroke-opacity:1;stroke-dasharray:none" />
      <rect
         transform="matrix(0.973159,0.230132,-0.228692,0.973499,0,0)"
         y="487.68744"
         x="645.63171"
         height="12.595285"
         width="11.265238"
         id="rect4071"
         style="fill:#000000;fill-opacity:1;stroke:none" />
      <path
         sodipodi:nodetypes="cc"
         id="path4160"
         d="m 533.23958,627.8139 c 4.29423,2.51504 6.65597,0.76293 6.65597,0.76293"
         style="fill:none;stroke:#000000;stroke-width:0.31340399;stroke-linecap:butt;stroke-linejoin:miter;stroke-miterlimit:4;stroke-opacity:1;stroke-dasharray:none" />
    </g>
  </g>
</svg>
