<?xml version="1.0" encoding="UTF-8" standalone="no"?>
<!-- Created with Inkscape (http://www.inkscape.org/) -->

<svg
   xmlns:dc="http://purl.org/dc/elements/1.1/"
   xmlns:cc="http://creativecommons.org/ns#"
   xmlns:rdf="http://www.w3.org/1999/02/22-rdf-syntax-ns#"
   xmlns:svg="http://www.w3.org/2000/svg"
   xmlns="http://www.w3.org/2000/svg"
   xmlns:xlink="http://www.w3.org/1999/xlink"
   xmlns:sodipodi="http://sodipodi.sourceforge.net/DTD/sodipodi-0.dtd"
   xmlns:inkscape="http://www.inkscape.org/namespaces/inkscape"
   width="35.846409"
   height="65.749565"
   id="svg6629"
   version="1.1"
   inkscape:version="0.47 r22583"
   sodipodi:docname="New document 38">
  <defs
     id="defs6631">
    <inkscape:perspective
       sodipodi:type="inkscape:persp3d"
       inkscape:vp_x="0 : 526.18109 : 1"
       inkscape:vp_y="0 : 1000 : 0"
       inkscape:vp_z="744.09448 : 526.18109 : 1"
       inkscape:persp3d-origin="372.04724 : 350.78739 : 1"
       id="perspective6637" />
    <inkscape:perspective
       id="perspective6580"
       inkscape:persp3d-origin="0.5 : 0.33333333 : 1"
       inkscape:vp_z="1 : 0.5 : 1"
       inkscape:vp_y="0 : 1000 : 0"
       inkscape:vp_x="0 : 0.5 : 1"
       sodipodi:type="inkscape:persp3d" />
    <linearGradient
       inkscape:collect="always"
       xlink:href="#linearGradient11752"
       id="linearGradient4201"
       gradientUnits="userSpaceOnUse"
       gradientTransform="matrix(-0.05044468,-0.131378,-0.08289778,0.0457641,612.0477,671.504)"
       x1="244.13411"
       y1="588.20197"
       x2="205.89403"
       y2="536.39093" />
    <linearGradient
       id="linearGradient11752">
      <stop
         id="stop11753"
         offset="0.0000000"
         style="stop-color:#ffcf2f;stop-opacity:1.0000000;" />
      <stop
         id="stop11754"
         offset="1.0000000"
         style="stop-color:#faee89;stop-opacity:1.0000000;" />
    </linearGradient>
    <linearGradient
       inkscape:collect="always"
       xlink:href="#linearGradient11752"
       id="linearGradient4075"
       gradientUnits="userSpaceOnUse"
       gradientTransform="matrix(-0.889997,0,0,1.073801,738.2729,233.5941)"
       x1="296.59113"
       y1="486.3443"
       x2="274.23395"
       y2="438.15631" />
    <linearGradient
       id="linearGradient6589">
      <stop
         id="stop6591"
         offset="0.0000000"
         style="stop-color:#ffcf2f;stop-opacity:1.0000000;" />
      <stop
         id="stop6593"
         offset="1.0000000"
         style="stop-color:#faee89;stop-opacity:1.0000000;" />
    </linearGradient>
    <linearGradient
       inkscape:collect="always"
       xlink:href="#linearGradient11752"
       id="linearGradient4077"
       gradientUnits="userSpaceOnUse"
       gradientTransform="matrix(-0.68354,0,0,1.398134,738.2729,233.5941)"
       x1="281.33209"
       y1="368.06802"
       x2="263.86984"
       y2="358.0683" />
    <linearGradient
       id="linearGradient6596">
      <stop
         id="stop6598"
         offset="0.0000000"
         style="stop-color:#ffcf2f;stop-opacity:1.0000000;" />
      <stop
         id="stop6600"
         offset="1.0000000"
         style="stop-color:#faee89;stop-opacity:1.0000000;" />
    </linearGradient>
    <linearGradient
       inkscape:collect="always"
       xlink:href="#linearGradient11752"
       id="linearGradient4079"
       gradientUnits="userSpaceOnUse"
       gradientTransform="matrix(-1.028081,0,0,0.929577,738.2729,233.5941)"
       x1="244.13411"
       y1="588.20197"
       x2="205.89403"
       y2="536.39093" />
    <linearGradient
       id="linearGradient6603">
      <stop
         id="stop6605"
         offset="0.0000000"
         style="stop-color:#ffcf2f;stop-opacity:1.0000000;" />
      <stop
         id="stop6607"
         offset="1.0000000"
         style="stop-color:#faee89;stop-opacity:1.0000000;" />
    </linearGradient>
  </defs>
  <sodipodi:namedview
     id="base"
     pagecolor="#ffffff"
     bordercolor="#666666"
     borderopacity="1.0"
     inkscape:pageopacity="0.0"
     inkscape:pageshadow="2"
     inkscape:zoom="0.35"
     inkscape:cx="-218.50537"
     inkscape:cy="-181.41093"
     inkscape:document-units="px"
     inkscape:current-layer="layer1"
     showgrid="false"
     inkscape:window-width="555"
     inkscape:window-height="483"
     inkscape:window-x="72"
     inkscape:window-y="540"
     inkscape:window-maximized="0" />
  <metadata
     id="metadata6634">
    <rdf:RDF>
      <cc:Work
         rdf:about="">
        <dc:format>image/svg+xml</dc:format>
        <dc:type
           rdf:resource="http://purl.org/dc/dcmitype/StillImage" />
        <dc:title></dc:title>
      </cc:Work>
    </rdf:RDF>
  </metadata>
  <g
     inkscape:label="Layer 1"
     inkscape:groupmode="layer"
     id="layer1"
     transform="translate(-593.50537,-285.20169)">
    <g
       transform="translate(46.648268,-322.20545)"
       id="g4206"
       inkscape:export-xdpi="90.342751"
       inkscape:export-ydpi="90.342751"
       inkscape:export-filename="/home/tim/src/tuxmath/trunk/data/images/penguins/walk-on3.png">
      <path
         transform="matrix(0.101197,0.0396446,-0.0252659,0.120843,540.8381,557.4218)"
         sodipodi:open="true"
         sodipodi:end="10.651192"
         sodipodi:start="4.3867684"
         d="m 317.06015,652.92066 c 15.32415,-11.48382 31.9412,6.77898 37.11523,40.79111 5.17403,34.01213 -3.05427,70.89388 -18.37841,82.3777 -15.32415,11.48382 -31.9412,-6.77898 -37.11523,-40.79111 -5.10552,-33.56178 2.83672,-70.01736 17.85951,-81.97677"
         sodipodi:ry="65"
         sodipodi:rx="29.285715"
         sodipodi:cy="714.50507"
         sodipodi:cx="326.42856"
         id="path3953"
         style="fill:#000000;fill-opacity:1;stroke:none"
         sodipodi:type="arc" />
      <path
         sodipodi:nodetypes="ccssssss"
         d="m 559.45888,664.00917 c -1.75096,-1.54994 -4.9633,-2.75612 -6.8349,-3.2861 -1.07905,1.02483 -2.20729,2.35062 -3.03416,4.77022 -0.13454,0.39369 -0.24413,0.68657 0.46166,1.23798 2.05256,1.6036 6.98579,5.79729 8.35831,6.20394 2.56935,0.76123 3.13575,-1.38132 3.52644,-2.818 0.28105,-1.03351 0.004,-2.46434 -0.31723,-3.15659 -0.32076,-0.69227 -0.46437,-1.45036 -2.16012,-2.95145 z"
         id="path3955"
         style="fill:url(#linearGradient4201);fill-opacity:1;fill-rule:evenodd;stroke:#000000;stroke-width:0.02872224pt;stroke-linecap:butt;stroke-linejoin:miter;stroke-opacity:1" />
      <path
         sodipodi:nodetypes="cscssscsssc"
         id="path3957"
         d="m 564.3209,607.40744 c -1.96845,0.0157 -4.03027,0.33507 -6.02388,0.87934 -6.63706,1.81196 -5.58025,13.42716 -4.14142,21.58075 -2.73574,7.22611 -1.33332,8.30563 -3.12052,15.89714 -3.47599,14.76497 8.43477,16.35036 16.33671,16.48697 6.78078,0.11723 16.1395,-5.35424 8.59441,-23.96753 -1.14813,-2.83238 -1.93592,-5.52464 -3.46632,-7.5589 0.71913,-1.08002 1.37737,-2.47942 2.26328,-4.07617 1.70646,-3.0757 0.89301,-8.29439 0.0995,-12.09856 -0.54682,-2.62161 -1.92464,-3.9043 -3.79457,-5.03968 -1.86993,-1.13538 -4.23197,-2.12345 -6.74722,-2.10336 z"
         style="fill:#000000;fill-opacity:1;stroke:none" />
      <path
         d="m 572.16822,630.32797 c 0,0 -0.10128,3.22169 0.74267,3.05213 0.84394,-0.16957 7.73051,1.3565 8.74325,6.27382 1.01273,4.91732 0.70891,5.68034 0.70891,5.68034 0,0 -8.60822,-4.23906 -8.70949,-6.44338 -0.10127,-2.20431 -2.66686,-3.05212 -2.66686,-3.05212 l 1.18152,-5.51079 z"
         id="path3959"
         style="fill:#000000;fill-opacity:1;fill-rule:evenodd;stroke:#000000;stroke-width:0.02139916pt;stroke-linecap:butt;stroke-linejoin:miter;stroke-opacity:1" />
      <path
         transform="matrix(0.09825854,-0.01578848,0.02263815,0.141164,514.3271,563.7862)"
         sodipodi:open="true"
         sodipodi:end="10.651192"
         sodipodi:start="4.3867684"
         d="m 463.37542,513.33124 c 20.18302,-17.66742 42.06889,10.4292 48.88347,62.75556 6.81457,52.32635 -4.0227,109.0675 -24.20572,126.73492 -20.18302,17.66741 -42.0689,-10.42921 -48.88347,-62.75556 -6.72434,-51.6335 3.73617,-107.71901 23.52229,-126.1181"
         sodipodi:ry="100"
         sodipodi:rx="38.57143"
         sodipodi:cy="608.07648"
         sodipodi:cx="475.71429"
         id="path3961"
         style="fill:#f9f9f9;fill-opacity:1;stroke:#000000;stroke-width:0.80000001;stroke-linecap:round;stroke-miterlimit:4;stroke-opacity:1;stroke-dasharray:none;stroke-dashoffset:0"
         sodipodi:type="arc" />
      <path
         sodipodi:nodetypes="ccscscc"
         id="path3963"
         d="m 573.09846,623.87568 c 0.85156,-0.51848 3.11059,-0.45918 3.12121,-0.48518 1.05219,0.11323 4.15581,0.49415 4.79392,0.72 1.27623,0.45168 1.77212,1.24558 1.67896,2.84976 -0.19955,2.90867 -1.37379,3.2468 -3.04101,3.40304 -4.78158,0.44808 -3.86499,0.10932 -8.06975,-0.23478 -0.42026,-3.12339 -0.77794,-2.32725 1.51667,-6.25284 z"
         style="fill:#fdd541;fill-opacity:1;stroke:none" />
      <path
         transform="matrix(0.188822,0,0,0.112467,482.4704,573.6143)"
         sodipodi:open="true"
         sodipodi:end="10.651192"
         sodipodi:start="4.3867684"
         d="m 466.40161,367.20864 c 8.22271,-6.68838 17.13918,3.9482 19.91549,23.75746 2.7763,19.80926 -1.63888,41.28984 -9.86159,47.97822 -8.22271,6.68838 -17.13918,-3.9482 -19.91549,-23.75746 -2.73955,-19.54697 1.52214,-40.77934 9.58316,-47.74471"
         sodipodi:ry="37.857143"
         sodipodi:rx="15.714286"
         sodipodi:cy="403.07648"
         sodipodi:cx="471.42856"
         id="path3965"
         style="fill:#ffffff;fill-opacity:1;stroke:none"
         sodipodi:type="arc" />
      <path
         transform="matrix(0.332296,0,0,0.145012,413.211,560.6548)"
         sodipodi:open="true"
         sodipodi:end="10.651192"
         sodipodi:start="4.3867684"
         d="m 476.28646,394.76664 c 3.7376,-3.28109 7.79054,1.93685 9.0525,11.6546 1.26196,9.71775 -0.74494,20.2554 -4.48254,23.53649 -3.7376,3.28109 -7.79054,-1.93686 -9.0525,-11.65461 -1.24524,-9.58908 0.69189,-20.00496 4.35598,-23.42193"
         sodipodi:ry="18.571428"
         sodipodi:rx="7.1428571"
         sodipodi:cy="412.36218"
         sodipodi:cx="478.57144"
         id="path3967"
         style="fill:#333333;fill-opacity:1;stroke:none"
         sodipodi:type="arc" />
      <path
         id="path3969"
         d="m 581.7669,625.34625 -0.58764,0.34758"
         style="fill:none;stroke:#000000;stroke-width:0.32095954;stroke-linecap:butt;stroke-linejoin:miter;stroke-miterlimit:4;stroke-opacity:1;stroke-dasharray:none" />
      <path
         d="m 560.12182,628.63307 c 0,0 1.27752,3.2021 -0.23562,3.52257 -1.51315,0.32047 -12.86429,5.88086 -12.92701,11.44894 -0.0627,5.56809 0.72234,6.1633 0.72234,6.1633 0,0 13.39077,-9.31053 12.81075,-11.6009 -0.58001,-2.29037 3.55324,-4.64459 3.55324,-4.64459 l -3.9237,-4.88932 z"
         id="path3973"
         style="fill:#000000;fill-opacity:1;fill-rule:evenodd;stroke:#ffffff;stroke-width:0.19705109;stroke-linecap:butt;stroke-linejoin:miter;stroke-miterlimit:4;stroke-opacity:1;stroke-dasharray:none" />
      <rect
         y="628.07574"
         x="554.60431"
         height="12.336032"
         width="11.055295"
         id="rect3975"
         style="fill:#000000;fill-opacity:1;stroke:none" />
      <g
         transform="matrix(0.951523,0.307577,-0.307577,0.951523,208.677,-57.36087)"
         id="g3977">
        <path
           sodipodi:type="arc"
           style="fill:#000000;fill-opacity:1;stroke:#ffffff;stroke-width:1.6000005;stroke-linecap:round;stroke-miterlimit:4;stroke-opacity:1;stroke-dasharray:none;stroke-dashoffset:0"
           id="path3979"
           sodipodi:cx="474.28571"
           sodipodi:cy="730.93359"
           sodipodi:rx="52.857143"
           sodipodi:ry="28.571428"
           d="m 457.37687,703.86353 c 27.65822,-5.04784 57.64997,2.97977 66.98846,17.93015 9.33849,14.95039 -5.51258,31.16215 -33.17079,36.20998 -27.65822,5.04783 -57.64997,-2.97977 -66.98846,-17.93016 -9.21484,-14.75243 5.11993,-30.77686 32.23425,-36.03374"
           sodipodi:start="4.3867684"
           sodipodi:end="10.651192"
           sodipodi:open="true"
           transform="matrix(0.08814751,0.106847,-0.106823,0.0882819,598.9079,459.5489)" />
        <rect
           style="fill:#000000;fill-opacity:1;stroke:none"
           id="rect3981"
           width="5.7994967"
           height="11.428954"
           x="718.9682"
           y="336.28204"
           transform="matrix(0.938975,0.343985,-0.343985,0.938975,0,0)" />
      </g>
      <g
         transform="matrix(0.07197754,0.08908681,-0.08651746,0.09701031,602.004,550.6535)"
         id="g3983">
        <path
           style="fill:url(#linearGradient4075);fill-opacity:1;fill-rule:evenodd;stroke:#000000;stroke-width:0;stroke-linecap:butt;stroke-linejoin:miter;stroke-miterlimit:4;stroke-opacity:1"
           id="path3985"
           d="m 534.20117,716.14398 c -7.94291,-18.94079 -14.05285,-22.60675 -14.05285,-22.60675 l -14.66383,4.27695 -23.21774,63.54329 53.1564,-19.55178 3.05497,-25.05072" />
        <path
           style="fill:url(#linearGradient4077);fill-opacity:1;fill-rule:evenodd;stroke:#000000;stroke-width:0.24439726pt;stroke-linecap:butt;stroke-linejoin:miter;stroke-opacity:1"
           id="path3987"
           d="m 541.53308,758.3025 c 0,0 27.49469,-24.43972 18.3298,-39.10356 -9.1649,-14.66383 -18.3298,39.10356 -18.3298,39.10356 z" />
        <path
           style="fill:url(#linearGradient4079);fill-opacity:1;fill-rule:evenodd;stroke:#000000;stroke-width:0.24439726pt;stroke-linecap:butt;stroke-linejoin:miter;stroke-opacity:1"
           id="path3989"
           d="m 510.98343,752.19257 c 0,0 34.21561,-67.20924 -8.55391,-58.65534 -42.76952,8.55391 -76.98513,92.25996 -51.32342,100.20287 25.66171,7.94291 83.70606,-13.44184 90.42698,-36.65958 6.72093,-23.21774 35.4376,-53.7674 9.1649,-64.76527 -26.2727,-10.99788 -34.21561,0.61099 -34.21561,0.61099" />
      </g>
      <path
         sodipodi:nodetypes="cc"
         id="path4204"
         d="m 575.73214,627.13355 c 4.29423,2.51504 6.65597,0.76293 6.65597,0.76293"
         style="fill:none;stroke:#000000;stroke-width:0.31340399;stroke-linecap:butt;stroke-linejoin:miter;stroke-miterlimit:4;stroke-opacity:1;stroke-dasharray:none" />
    </g>
  </g>
</svg>
