<?xml version="1.0" encoding="UTF-8" standalone="no"?>
<!-- Created with Inkscape (http://www.inkscape.org/) -->

<svg
   xmlns:dc="http://purl.org/dc/elements/1.1/"
   xmlns:cc="http://creativecommons.org/ns#"
   xmlns:rdf="http://www.w3.org/1999/02/22-rdf-syntax-ns#"
   xmlns:svg="http://www.w3.org/2000/svg"
   xmlns="http://www.w3.org/2000/svg"
   xmlns:xlink="http://www.w3.org/1999/xlink"
   xmlns:sodipodi="http://sodipodi.sourceforge.net/DTD/sodipodi-0.dtd"
   xmlns:inkscape="http://www.inkscape.org/namespaces/inkscape"
   width="35.113079"
   height="65.749954"
   id="svg6293"
   version="1.1"
   inkscape:version="0.47 r22583"
   sodipodi:docname="New document 32">
  <defs
     id="defs6295">
    <inkscape:perspective
       sodipodi:type="inkscape:persp3d"
       inkscape:vp_x="0 : 526.18109 : 1"
       inkscape:vp_y="0 : 1000 : 0"
       inkscape:vp_z="744.09448 : 526.18109 : 1"
       inkscape:persp3d-origin="372.04724 : 350.78739 : 1"
       id="perspective6301" />
    <inkscape:perspective
       id="perspective6243"
       inkscape:persp3d-origin="0.5 : 0.33333333 : 1"
       inkscape:vp_z="1 : 0.5 : 1"
       inkscape:vp_y="0 : 1000 : 0"
       inkscape:vp_x="0 : 0.5 : 1"
       sodipodi:type="inkscape:persp3d" />
    <linearGradient
       inkscape:collect="always"
       xlink:href="#linearGradient11752"
       id="linearGradient4081"
       gradientUnits="userSpaceOnUse"
       gradientTransform="matrix(-0.658741,0.14727,0.158825,0.425808,693.7206,415.3364)"
       x1="244.13411"
       y1="588.20197"
       x2="205.89403"
       y2="536.39093" />
    <linearGradient
       id="linearGradient11752">
      <stop
         id="stop11753"
         offset="0.0000000"
         style="stop-color:#ffcf2f;stop-opacity:1.0000000;" />
      <stop
         id="stop11754"
         offset="1.0000000"
         style="stop-color:#faee89;stop-opacity:1.0000000;" />
    </linearGradient>
    <linearGradient
       inkscape:collect="always"
       xlink:href="#linearGradient11752"
       id="linearGradient4083"
       gradientUnits="userSpaceOnUse"
       gradientTransform="matrix(-0.889997,0,0,1.073801,738.2729,233.5941)"
       x1="296.59113"
       y1="486.3443"
       x2="274.23395"
       y2="438.15631" />
    <linearGradient
       id="linearGradient6252">
      <stop
         id="stop6254"
         offset="0.0000000"
         style="stop-color:#ffcf2f;stop-opacity:1.0000000;" />
      <stop
         id="stop6256"
         offset="1.0000000"
         style="stop-color:#faee89;stop-opacity:1.0000000;" />
    </linearGradient>
    <linearGradient
       inkscape:collect="always"
       xlink:href="#linearGradient11752"
       id="linearGradient4085"
       gradientUnits="userSpaceOnUse"
       gradientTransform="matrix(-0.68354,0,0,1.398134,738.2729,233.5941)"
       x1="281.33209"
       y1="368.06802"
       x2="263.86984"
       y2="358.0683" />
    <linearGradient
       id="linearGradient6259">
      <stop
         id="stop6261"
         offset="0.0000000"
         style="stop-color:#ffcf2f;stop-opacity:1.0000000;" />
      <stop
         id="stop6263"
         offset="1.0000000"
         style="stop-color:#faee89;stop-opacity:1.0000000;" />
    </linearGradient>
    <linearGradient
       inkscape:collect="always"
       xlink:href="#linearGradient11752"
       id="linearGradient4087"
       gradientUnits="userSpaceOnUse"
       gradientTransform="matrix(-1.028081,0,0,0.929577,738.2729,233.5941)"
       x1="244.13411"
       y1="588.20197"
       x2="205.89403"
       y2="536.39093" />
    <linearGradient
       id="linearGradient6266">
      <stop
         id="stop6268"
         offset="0.0000000"
         style="stop-color:#ffcf2f;stop-opacity:1.0000000;" />
      <stop
         id="stop6270"
         offset="1.0000000"
         style="stop-color:#faee89;stop-opacity:1.0000000;" />
    </linearGradient>
  </defs>
  <sodipodi:namedview
     id="base"
     pagecolor="#ffffff"
     bordercolor="#666666"
     borderopacity="1.0"
     inkscape:pageopacity="0.0"
     inkscape:pageshadow="2"
     inkscape:zoom="0.35"
     inkscape:cx="109.6994"
     inkscape:cy="-4.2678844"
     inkscape:document-units="px"
     inkscape:current-layer="layer1"
     showgrid="false"
     inkscape:window-width="555"
     inkscape:window-height="483"
     inkscape:window-x="72"
     inkscape:window-y="540"
     inkscape:window-maximized="0" />
  <metadata
     id="metadata6298">
    <rdf:RDF>
      <cc:Work
         rdf:about="">
        <dc:format>image/svg+xml</dc:format>
        <dc:type
           rdf:resource="http://purl.org/dc/dcmitype/StillImage" />
        <dc:title></dc:title>
      </cc:Work>
    </rdf:RDF>
  </metadata>
  <g
     inkscape:label="Layer 1"
     inkscape:groupmode="layer"
     id="layer1"
     transform="translate(-265.3006,-462.34434)">
    <g
       transform="translate(-195.91907,-145.06283)"
       id="g4119"
       inkscape:export-xdpi="90.342751"
       inkscape:export-ydpi="90.342751"
       inkscape:export-filename="/home/tim/src/tuxmath/trunk/data/images/penguins/walk-on1.png">
      <g
         transform="matrix(0.203822,0.05925592,-0.05925592,0.203822,400.1247,490.0041)"
         id="g3993">
        <path
           sodipodi:type="arc"
           style="fill:#000000;fill-opacity:1;stroke:none"
           id="path3995"
           sodipodi:cx="326.42856"
           sodipodi:cy="714.50507"
           sodipodi:rx="29.285715"
           sodipodi:ry="65"
           d="m 317.06015,652.92066 c 15.32415,-11.48382 31.9412,6.77898 37.11523,40.79111 5.17403,34.01213 -3.05427,70.89388 -18.37841,82.3777 -15.32415,11.48382 -31.9412,-6.77898 -37.11523,-40.79111 -5.10552,-33.56178 2.83672,-70.01736 17.85951,-81.97677"
           sodipodi:start="4.3867684"
           sodipodi:end="10.651192"
           sodipodi:open="true"
           transform="matrix(0.468896,-0.228669,0.344261,0.481733,192.9453,392.4015)" />
        <path
           style="fill:url(#linearGradient4081);fill-opacity:1;fill-rule:evenodd;stroke:#000000;stroke-width:0.1378147pt;stroke-linecap:butt;stroke-linejoin:miter;stroke-opacity:1"
           id="path3997"
           d="m 621.18925,659.80434 c -8.58422,7.22619 -16.56504,21.63367 -20.39525,30.14917 4.10323,5.84402 9.59967,12.13306 20.49718,17.75923 1.7731,0.9154 3.08551,1.64155 6.19773,-1.32278 9.05078,-8.62076 32.41474,-29.10187 35.30892,-35.33403 5.41788,-11.66655 -4.3484,-15.86122 -10.88948,-18.72564 -4.70551,-2.0606 -11.68863,-1.74772 -15.19833,-0.71074 -3.50969,1.03695 -7.20716,1.18642 -15.52077,8.18479 z"
           sodipodi:nodetypes="ccssssss" />
      </g>
      <path
         sodipodi:nodetypes="cscssscsssc"
         id="path3999"
         d="m 477.52794,607.40748 c -2.00579,0.016 -4.10671,0.3411 -6.13813,0.89515 -6.76295,1.84452 -5.68609,13.66842 -4.21997,21.96852 -2.78763,7.35596 -1.35861,8.45487 -3.17972,16.18279 -3.54191,15.03028 8.62048,17.44123 16.64658,16.78323 8.0823,-0.66261 16.44561,-5.45045 8.75742,-24.3982 -1.1699,-2.88327 -1.97265,-5.62391 -3.53207,-7.69472 0.73278,-1.09943 1.4035,-2.52397 2.30621,-4.14941 1.73882,-3.13097 0.90994,-8.44344 0.10142,-12.31596 -0.55719,-2.66872 -1.96115,-3.97446 -3.86655,-5.13024 -1.9054,-1.15578 -4.31224,-2.16161 -6.87519,-2.14116 z"
         style="fill:#000000;fill-opacity:1;stroke:none" />
      <path
         d="m 471.82773,630.73987 c 0,0 0.10319,3.27958 -0.75676,3.10697 -0.85995,-0.17261 -7.87714,1.38087 -8.90908,6.38655 -1.03194,5.00568 -0.72236,5.78242 -0.72236,5.78242 0,0 8.77149,-4.31524 8.87469,-6.55917 0.10319,-2.24392 2.71744,-3.10697 2.71744,-3.10697 l -1.20393,-5.6098 z"
         id="path4001"
         style="fill:#000000;fill-opacity:1;fill-rule:evenodd;stroke:#000000;stroke-width:0.02179435pt;stroke-linecap:butt;stroke-linejoin:miter;stroke-opacity:1" />
      <path
         transform="matrix(0.100122,-0.01607217,0.02306745,0.143701,426.5859,563.0024)"
         sodipodi:open="true"
         sodipodi:end="10.651192"
         sodipodi:start="4.3867684"
         d="m 463.37542,513.33124 c 20.18302,-17.66742 42.06889,10.4292 48.88347,62.75556 6.81457,52.32635 -4.0227,109.0675 -24.20572,126.73492 -20.18302,17.66741 -42.0689,-10.42921 -48.88347,-62.75556 -6.72434,-51.6335 3.73617,-107.71901 23.52229,-126.1181"
         sodipodi:ry="100"
         sodipodi:rx="38.57143"
         sodipodi:cy="608.07648"
         sodipodi:cx="475.71429"
         id="path4003"
         style="fill:#f9f9f9;fill-opacity:1;stroke:#000000;stroke-width:0.80000001;stroke-linecap:round;stroke-miterlimit:4;stroke-opacity:1;stroke-dasharray:none;stroke-dashoffset:0"
         sodipodi:type="arc" />
      <path
         sodipodi:nodetypes="ccscscc"
         id="path4005"
         d="m 486.47199,624.17164 c 0.86771,-0.5278 3.16959,-0.46743 3.1804,-0.49391 1.07215,0.11528 4.23463,0.50304 4.88485,0.73294 1.30043,0.4598 1.80573,1.26797 1.71081,2.90098 -0.20334,2.96093 -1.39985,3.30513 -3.09869,3.46418 -4.87227,0.45614 -3.9383,0.11129 -8.22281,-0.239 -0.42824,-3.17952 -0.7927,-2.36906 1.54544,-6.36519 z"
         style="fill:#fdd541;fill-opacity:1;stroke:none" />
      <path
         transform="matrix(0.192404,0,0,0.114488,394.125,573.0071)"
         sodipodi:open="true"
         sodipodi:end="10.651192"
         sodipodi:start="4.3867684"
         d="m 466.40161,367.20864 c 8.22271,-6.68838 17.13918,3.9482 19.91549,23.75746 2.7763,19.80926 -1.63888,41.28984 -9.86159,47.97822 -8.22271,6.68838 -17.13918,-3.9482 -19.91549,-23.75746 -2.73955,-19.54697 1.52214,-40.77934 9.58316,-47.74471"
         sodipodi:ry="37.857143"
         sodipodi:rx="15.714286"
         sodipodi:cy="403.07648"
         sodipodi:cx="471.42856"
         id="path4007"
         style="fill:#ffffff;fill-opacity:1;stroke:none"
         sodipodi:type="arc" />
      <path
         transform="matrix(0.338599,0,0,0.147617,323.5519,559.8148)"
         sodipodi:open="true"
         sodipodi:end="10.651192"
         sodipodi:start="4.3867684"
         d="m 476.28646,394.76664 c 3.7376,-3.28109 7.79054,1.93685 9.0525,11.6546 1.26196,9.71775 -0.74494,20.2554 -4.48254,23.53649 -3.7376,3.28109 -7.79054,-1.93686 -9.0525,-11.65461 -1.24524,-9.58908 0.69189,-20.00496 4.35598,-23.42193"
         sodipodi:ry="18.571428"
         sodipodi:rx="7.1428571"
         sodipodi:cy="412.36218"
         sodipodi:cx="478.57144"
         id="path4009"
         style="fill:#333333;fill-opacity:1;stroke:none"
         sodipodi:type="arc" />
      <path
         id="path4011"
         d="m 495.30484,625.66863 -0.59879,0.35383"
         style="fill:none;stroke:#000000;stroke-width:0.31340009;stroke-linecap:butt;stroke-linejoin:miter;stroke-miterlimit:4;stroke-opacity:1;stroke-dasharray:none" />
      <path
         d="m 475.82431,629.84905 c 0,0 -0.83815,3.40795 0.73398,3.51866 1.57213,0.11071 13.8104,4.12369 14.65805,9.72906 0.84764,5.60538 0.13925,6.31573 0.13925,6.31573 0,0 -14.82482,-7.50786 -14.56212,-9.89861 0.26268,-2.39074 -4.24001,-4.18424 -4.24001,-4.18424 l 3.27085,-5.4806 z"
         id="path4015"
         style="fill:#000000;fill-opacity:1;fill-rule:evenodd;stroke:#ffffff;stroke-width:0.20069018;stroke-linecap:butt;stroke-linejoin:miter;stroke-miterlimit:4;stroke-opacity:1;stroke-dasharray:none" />
      <rect
         y="628.4472"
         x="467.62701"
         height="12.557693"
         width="11.264981"
         id="rect4017"
         style="fill:#000000;fill-opacity:1;stroke:none" />
      <g
         transform="matrix(0.01569469,0.21168,-0.21168,0.01569469,565.7861,520.9022)"
         id="g4019">
        <path
           sodipodi:type="arc"
           style="fill:#000000;fill-opacity:1;stroke:#ffffff;stroke-width:1.6000005;stroke-linecap:round;stroke-miterlimit:4;stroke-opacity:1;stroke-dasharray:none;stroke-dashoffset:0"
           id="path4021"
           sodipodi:cx="474.28571"
           sodipodi:cy="730.93359"
           sodipodi:rx="52.857143"
           sodipodi:ry="28.571428"
           d="m 457.37687,703.86353 c 27.65822,-5.04784 57.64997,2.97977 66.98846,17.93015 9.33849,14.95039 -5.51258,31.16215 -33.17079,36.20998 -27.65822,5.04783 -57.64997,-2.97977 -66.98846,-17.93016 -9.21484,-14.75243 5.11993,-30.77686 32.23425,-36.03374"
           sodipodi:start="4.3867684"
           sodipodi:end="10.651192"
           sodipodi:open="true"
           transform="matrix(0.573772,0.335733,-0.335733,0.573772,576.538,-74.62652)" />
        <g
           id="g4023"
           transform="matrix(0.471556,0.282432,-0.22979,0.579583,578.1783,-57.64035)">
          <path
             d="m 534.20117,716.14398 c -7.94291,-18.94079 -14.05285,-22.60675 -14.05285,-22.60675 l -14.66383,4.27695 -23.21774,63.54329 53.1564,-19.55178 3.05497,-25.05072"
             id="path4025"
             style="fill:url(#linearGradient4083);fill-opacity:1;fill-rule:evenodd;stroke:#000000;stroke-width:0;stroke-linecap:butt;stroke-linejoin:miter;stroke-miterlimit:4;stroke-opacity:1" />
          <path
             d="m 541.53308,758.3025 c 0,0 27.49469,-24.43972 18.3298,-39.10356 -9.1649,-14.66383 -18.3298,39.10356 -18.3298,39.10356 z"
             id="path4027"
             style="fill:url(#linearGradient4085);fill-opacity:1;fill-rule:evenodd;stroke:#000000;stroke-width:0.24439726pt;stroke-linecap:butt;stroke-linejoin:miter;stroke-opacity:1" />
          <path
             d="m 510.98343,752.19257 c 0,0 34.21561,-67.20924 -8.55391,-58.65534 -42.76952,8.55391 -76.98513,92.25996 -51.32342,100.20287 25.66171,7.94291 83.70606,-13.44184 90.42698,-36.65958 6.72093,-23.21774 35.4376,-53.7674 9.1649,-64.76527 -26.2727,-10.99788 -34.21561,0.61099 -34.21561,0.61099"
             id="path4029"
             style="fill:url(#linearGradient4087);fill-opacity:1;fill-rule:evenodd;stroke:#000000;stroke-width:0.24439726pt;stroke-linecap:butt;stroke-linejoin:miter;stroke-opacity:1" />
        </g>
        <rect
           style="fill:#000000;fill-opacity:1;stroke:none"
           id="rect4031"
           width="27.840729"
           height="54.811432"
           x="569.48468"
           y="456.71613" />
      </g>
      <path
         sodipodi:nodetypes="cc"
         id="path4117"
         d="m 489.52008,627.2874 c 4.29423,2.51504 6.65597,0.76293 6.65597,0.76293"
         style="fill:none;stroke:#000000;stroke-width:0.31340399;stroke-linecap:butt;stroke-linejoin:miter;stroke-miterlimit:4;stroke-opacity:1;stroke-dasharray:none" />
    </g>
  </g>
</svg>
