<?xml version="1.0" encoding="UTF-8" standalone="no"?>
<!-- Created with Inkscape (http://www.inkscape.org/) -->

<svg
   xmlns:dc="http://purl.org/dc/elements/1.1/"
   xmlns:cc="http://creativecommons.org/ns#"
   xmlns:rdf="http://www.w3.org/1999/02/22-rdf-syntax-ns#"
   xmlns:svg="http://www.w3.org/2000/svg"
   xmlns="http://www.w3.org/2000/svg"
   xmlns:xlink="http://www.w3.org/1999/xlink"
   xmlns:sodipodi="http://sodipodi.sourceforge.net/DTD/sodipodi-0.dtd"
   xmlns:inkscape="http://www.inkscape.org/namespaces/inkscape"
   width="32.970776"
   height="65.74958"
   id="svg5915"
   version="1.1"
   inkscape:version="0.47 r22583"
   sodipodi:docname="New document 26">
  <defs
     id="defs5917">
    <inkscape:perspective
       sodipodi:type="inkscape:persp3d"
       inkscape:vp_x="0 : 526.18109 : 1"
       inkscape:vp_y="0 : 1000 : 0"
       inkscape:vp_z="744.09448 : 526.18109 : 1"
       inkscape:persp3d-origin="372.04724 : 350.78739 : 1"
       id="perspective5923" />
    <inkscape:perspective
       id="perspective5866"
       inkscape:persp3d-origin="0.5 : 0.33333333 : 1"
       inkscape:vp_z="1 : 0.5 : 1"
       inkscape:vp_y="0 : 1000 : 0"
       inkscape:vp_x="0 : 0.5 : 1"
       sodipodi:type="inkscape:persp3d" />
    <linearGradient
       inkscape:collect="always"
       xlink:href="#linearGradient11752"
       id="linearGradient9174"
       gradientUnits="userSpaceOnUse"
       gradientTransform="matrix(-0.658741,0.14727,0.158825,0.425808,693.7206,415.3364)"
       x1="244.13411"
       y1="588.20197"
       x2="205.89403"
       y2="536.39093" />
    <linearGradient
       id="linearGradient11752">
      <stop
         id="stop11753"
         offset="0.0000000"
         style="stop-color:#ffcf2f;stop-opacity:1.0000000;" />
      <stop
         id="stop11754"
         offset="1.0000000"
         style="stop-color:#faee89;stop-opacity:1.0000000;" />
    </linearGradient>
    <linearGradient
       inkscape:collect="always"
       xlink:href="#linearGradient11752"
       id="linearGradient9176"
       gradientUnits="userSpaceOnUse"
       gradientTransform="matrix(-0.889997,0,0,1.073801,738.2729,233.5941)"
       x1="296.59113"
       y1="486.3443"
       x2="274.23395"
       y2="438.15631" />
    <linearGradient
       id="linearGradient5875">
      <stop
         id="stop5877"
         offset="0.0000000"
         style="stop-color:#ffcf2f;stop-opacity:1.0000000;" />
      <stop
         id="stop5879"
         offset="1.0000000"
         style="stop-color:#faee89;stop-opacity:1.0000000;" />
    </linearGradient>
    <linearGradient
       inkscape:collect="always"
       xlink:href="#linearGradient11752"
       id="linearGradient9178"
       gradientUnits="userSpaceOnUse"
       gradientTransform="matrix(-0.68354,0,0,1.398134,738.2729,233.5941)"
       x1="281.33209"
       y1="368.06802"
       x2="263.86984"
       y2="358.0683" />
    <linearGradient
       id="linearGradient5882">
      <stop
         id="stop5884"
         offset="0.0000000"
         style="stop-color:#ffcf2f;stop-opacity:1.0000000;" />
      <stop
         id="stop5886"
         offset="1.0000000"
         style="stop-color:#faee89;stop-opacity:1.0000000;" />
    </linearGradient>
    <linearGradient
       inkscape:collect="always"
       xlink:href="#linearGradient11752"
       id="linearGradient9180"
       gradientUnits="userSpaceOnUse"
       gradientTransform="matrix(-1.028081,0,0,0.929577,738.2729,233.5941)"
       x1="244.13411"
       y1="588.20197"
       x2="205.89403"
       y2="536.39093" />
    <linearGradient
       id="linearGradient5889">
      <stop
         id="stop5891"
         offset="0.0000000"
         style="stop-color:#ffcf2f;stop-opacity:1.0000000;" />
      <stop
         id="stop5893"
         offset="1.0000000"
         style="stop-color:#faee89;stop-opacity:1.0000000;" />
    </linearGradient>
  </defs>
  <sodipodi:namedview
     id="base"
     pagecolor="#ffffff"
     bordercolor="#666666"
     borderopacity="1.0"
     inkscape:pageopacity="0.0"
     inkscape:pageshadow="2"
     inkscape:zoom="0.35"
     inkscape:cx="-179.94319"
     inkscape:cy="-112.83949"
     inkscape:document-units="px"
     inkscape:current-layer="layer1"
     showgrid="false"
     inkscape:window-width="555"
     inkscape:window-height="483"
     inkscape:window-x="72"
     inkscape:window-y="540"
     inkscape:window-maximized="0" />
  <metadata
     id="metadata5920">
    <rdf:RDF>
      <cc:Work
         rdf:about="">
        <dc:format>image/svg+xml</dc:format>
        <dc:type
           rdf:resource="http://purl.org/dc/dcmitype/StillImage" />
        <dc:title></dc:title>
      </cc:Work>
    </rdf:RDF>
  </metadata>
  <g
     inkscape:label="Layer 1"
     inkscape:groupmode="layer"
     id="layer1"
     transform="translate(-554.94319,-353.77311)">
    <g
       id="g3224"
       transform="matrix(0.244118,0,0,0.244928,492.67602,259.7611)"
       inkscape:export-filename="/home/tim/src/tuxmath/trunk/data/images/penguins/walk-off2.png"
       inkscape:export-xdpi="90.342751"
       inkscape:export-ydpi="90.342751">
      <g
         transform="matrix(0.71027,0.501317,-0.501317,0.71027,209.9558,-173.9609)"
         id="g2202">
        <path
           sodipodi:type="arc"
           style="fill:#000000;fill-opacity:1;stroke:none"
           id="path2204"
           sodipodi:cx="326.42856"
           sodipodi:cy="714.50507"
           sodipodi:rx="29.285715"
           sodipodi:ry="65"
           d="m 317.06015,652.92066 c 15.32415,-11.48382 31.9412,6.77898 37.11523,40.79111 5.17403,34.01213 -3.05427,70.89388 -18.37841,82.3777 -15.32415,11.48382 -31.9412,-6.77898 -37.11523,-40.79111 -5.10552,-33.56178 2.83672,-70.01736 17.85951,-81.97677"
           sodipodi:start="4.3867684"
           sodipodi:end="10.651192"
           sodipodi:open="true"
           transform="matrix(0.468896,-0.228669,0.344261,0.481733,192.9453,392.4015)" />
        <path
           style="fill:url(#linearGradient9174);fill-opacity:1;fill-rule:evenodd;stroke:#000000;stroke-width:0.1378147pt;stroke-linecap:butt;stroke-linejoin:miter;stroke-opacity:1"
           id="path2206"
           d="m 621.18925,659.80434 c -8.58422,7.22619 -16.56504,21.63367 -20.39525,30.14917 4.10323,5.84402 9.59967,12.13306 20.49718,17.75923 1.7731,0.9154 3.08551,1.64155 6.19773,-1.32278 9.05078,-8.62076 32.41474,-29.10187 35.30892,-35.33403 5.41788,-11.66655 -4.3484,-15.86122 -10.88948,-18.72564 -4.70551,-2.0606 -11.68863,-1.74772 -15.19833,-0.71074 -3.50969,1.03695 -7.20716,1.18642 -15.52077,8.18479 z"
           sodipodi:nodetypes="ccssssss" />
      </g>
      <path
         sodipodi:nodetypes="cscssscsssc"
         id="path2208"
         d="m 313.10259,383.83654 c -8.21523,0.0655 -16.82009,1.39705 -25.14032,3.6663 -27.6994,7.5547 -23.28884,55.98257 -17.28396,89.97776 -11.41748,30.12823 -5.56456,34.62909 -13.02335,66.2808 -14.50683,61.56037 35.30739,71.43502 68.18033,68.74002 33.10315,-2.71387 67.35727,-22.32371 35.86829,-99.92913 -4.79165,-11.80917 -8.07947,-23.03416 -14.46651,-31.51569 3.00128,-4.50299 5.7484,-10.33759 9.44568,-16.995 7.12181,-12.8237 3.72691,-34.58227 0.41539,-50.44318 -2.28211,-10.93042 -8.03239,-16.27843 -15.83643,-21.01224 -7.80405,-4.7338 -17.66189,-8.8534 -28.15912,-8.76964 z"
         style="fill:#000000;fill-opacity:1;stroke:none" />
      <path
         transform="matrix(0.410077,-0.06582774,0.09447868,0.588564,104.4565,201.9641)"
         sodipodi:open="true"
         sodipodi:end="10.651192"
         sodipodi:start="4.3867684"
         d="m 463.37542,513.33124 c 20.18302,-17.66742 42.06889,10.4292 48.88347,62.75556 6.81457,52.32635 -4.0227,109.0675 -24.20572,126.73492 -20.18302,17.66741 -42.0689,-10.42921 -48.88347,-62.75556 -6.72434,-51.6335 3.73617,-107.71901 23.52229,-126.1181"
         sodipodi:ry="100"
         sodipodi:rx="38.57143"
         sodipodi:cy="608.07648"
         sodipodi:cx="475.71429"
         id="path2212"
         style="fill:#f9f9f9;fill-opacity:1;stroke:#000000;stroke-width:0.80000001;stroke-linecap:round;stroke-miterlimit:4;stroke-opacity:1;stroke-dasharray:none;stroke-dashoffset:0"
         sodipodi:type="arc" />
      <path
         sodipodi:nodetypes="ccscscc"
         id="path2214"
         d="m 349.73524,452.49848 c 3.55393,-2.16174 12.98187,-1.91449 13.02616,-2.02292 4.39124,0.47212 17.34403,2.06032 20.00716,3.00192 5.32626,1.88323 7.39585,5.1933 7.00705,11.88171 -0.83282,12.12727 -5.73346,13.53702 -12.69147,14.18843 -19.95566,1.86825 -16.13033,0.45582 -33.67866,-0.97886 -1.75394,-13.02253 -3.24669,-9.70312 6.32976,-26.07028 z"
         style="fill:#fdd541;fill-opacity:1;stroke:none" />
      <path
         transform="matrix(0.788039,0,0,0.468916,-28.49555,242.9411)"
         sodipodi:open="true"
         sodipodi:end="10.651192"
         sodipodi:start="4.3867684"
         d="m 466.40161,367.20864 c 8.22271,-6.68838 17.13918,3.9482 19.91549,23.75746 2.7763,19.80926 -1.63888,41.28984 -9.86159,47.97822 -8.22271,6.68838 -17.13918,-3.9482 -19.91549,-23.75746 -2.73955,-19.54697 1.52214,-40.77934 9.58316,-47.74471"
         sodipodi:ry="37.857143"
         sodipodi:rx="15.714286"
         sodipodi:cy="403.07648"
         sodipodi:cx="471.42856"
         id="path2216"
         style="fill:#ffffff;fill-opacity:1;stroke:none"
         sodipodi:type="arc" />
      <path
         transform="matrix(1.38682,0,0,0.604605,-317.5459,188.9084)"
         sodipodi:open="true"
         sodipodi:end="10.651192"
         sodipodi:start="4.3867684"
         d="m 476.28646,394.76664 c 3.7376,-3.28109 7.79054,1.93685 9.0525,11.6546 1.26196,9.71775 -0.74494,20.2554 -4.48254,23.53649 -3.7376,3.28109 -7.79054,-1.93686 -9.0525,-11.65461 -1.24524,-9.58908 0.69189,-20.00496 4.35598,-23.42193"
         sodipodi:ry="18.571428"
         sodipodi:rx="7.1428571"
         sodipodi:cy="412.36218"
         sodipodi:cx="478.57144"
         id="path2218"
         style="fill:#333333;fill-opacity:1;stroke:none"
         sodipodi:type="arc" />
      <path
         id="path2220"
         d="m 385.91245,458.62977 -2.45249,1.4492"
         style="fill:none;stroke:#000000;stroke-width:1.29999995;stroke-linecap:butt;stroke-linejoin:miter;stroke-miterlimit:4;stroke-opacity:1;stroke-dasharray:none" />
      <path
         sodipodi:nodetypes="cc"
         id="path2222"
         d="m 358.60071,472.89877 c 19.3969,-8.69517 30.87898,-5.01644 30.87898,-5.01644"
         style="fill:none;stroke:#000000;stroke-width:1.29999995;stroke-linecap:butt;stroke-linejoin:miter;stroke-miterlimit:4;stroke-opacity:1;stroke-dasharray:none" />
      <g
         transform="matrix(0.386049,0.778953,-0.778953,0.386049,457.6024,-76.20271)"
         id="g2228">
        <path
           sodipodi:type="arc"
           style="fill:#000000;fill-opacity:1;stroke:#ffffff;stroke-width:1.6000005;stroke-linecap:round;stroke-miterlimit:4;stroke-opacity:1;stroke-dasharray:none;stroke-dashoffset:0"
           id="path2230"
           sodipodi:cx="474.28571"
           sodipodi:cy="730.93359"
           sodipodi:rx="52.857143"
           sodipodi:ry="28.571428"
           d="m 457.37687,703.86353 c 27.65822,-5.04784 57.64997,2.97977 66.98846,17.93015 9.33849,14.95039 -5.51258,31.16215 -33.17079,36.20998 -27.65822,5.04783 -57.64997,-2.97977 -66.98846,-17.93016 -9.21484,-14.75243 5.11993,-30.77686 32.23425,-36.03374"
           sodipodi:start="4.3867684"
           sodipodi:end="10.651192"
           sodipodi:open="true"
           transform="matrix(0.573772,0.335733,-0.335733,0.573772,576.538,-74.62652)" />
        <g
           id="g2232"
           transform="matrix(0.471556,0.282432,-0.22979,0.579583,578.1783,-57.64035)">
          <path
             d="m 534.20117,716.14398 c -7.94291,-18.94079 -14.05285,-22.60675 -14.05285,-22.60675 l -14.66383,4.27695 -23.21774,63.54329 53.1564,-19.55178 3.05497,-25.05072"
             id="path2234"
             style="fill:url(#linearGradient9176);fill-opacity:1;fill-rule:evenodd;stroke:#000000;stroke-width:0;stroke-linecap:butt;stroke-linejoin:miter;stroke-miterlimit:4;stroke-opacity:1" />
          <path
             d="m 541.53308,758.3025 c 0,0 27.49469,-24.43972 18.3298,-39.10356 -9.1649,-14.66383 -18.3298,39.10356 -18.3298,39.10356 z"
             id="path2236"
             style="fill:url(#linearGradient9178);fill-opacity:1;fill-rule:evenodd;stroke:#000000;stroke-width:0.24439726pt;stroke-linecap:butt;stroke-linejoin:miter;stroke-opacity:1" />
          <path
             d="m 510.98343,752.19257 c 0,0 34.21561,-67.20924 -8.55391,-58.65534 -42.76952,8.55391 -76.98513,92.25996 -51.32342,100.20287 25.66171,7.94291 83.70606,-13.44184 90.42698,-36.65958 6.72093,-23.21774 35.4376,-53.7674 9.1649,-64.76527 -26.2727,-10.99788 -34.21561,0.61099 -34.21561,0.61099"
             id="path2238"
             style="fill:url(#linearGradient9180);fill-opacity:1;fill-rule:evenodd;stroke:#000000;stroke-width:0.24439726pt;stroke-linecap:butt;stroke-linejoin:miter;stroke-opacity:1" />
        </g>
        <rect
           style="fill:#000000;fill-opacity:1;stroke:none"
           id="rect2240"
           width="27.840729"
           height="54.811432"
           x="569.48468"
           y="456.71613" />
      </g>
      <path
         d="m 322.38649,471.43917 c 0,0 -11.23508,8.96584 -6.40957,13.25322 4.8255,4.2874 34.51635,47.88918 23.26182,68.19855 -11.25451,20.30938 -15.32832,20.84475 -15.32832,20.84475 0,0 -29.35296,-61.40659 -22.52697,-68.50909 6.82595,-7.10251 -3.30573,-24.17336 -3.30573,-24.17336 l 24.30877,-9.61407 z"
         id="path2224"
         style="fill:#000000;fill-opacity:1;fill-rule:evenodd;stroke:#ffffff;stroke-width:0.82197827;stroke-linecap:butt;stroke-linejoin:miter;stroke-miterlimit:4;stroke-opacity:1;stroke-dasharray:none" />
      <rect
         transform="matrix(0.97333,0.229411,-0.229411,0.97333,0,0)"
         y="369.87466"
         x="387.47827"
         height="51.433315"
         width="46.138672"
         id="rect2226"
         style="fill:#000000;fill-opacity:1;stroke:none" />
    </g>
  </g>
</svg>
