/* XPM */
static char * tuxmath_xpm[] = {
"32 32 259 2",
"  	c None",
". 	c #151515",
"+ 	c #2C2C2C",
"@ 	c #343434",
"# 	c #383838",
"$ 	c #313131",
"% 	c #222222",
"& 	c #0E0E0E",
"* 	c #212121",
"= 	c #7A7A7A",
"- 	c #C1C1C1",
"; 	c #C3C3C3",
"> 	c #A1A1A1",
", 	c #393939",
"' 	c #161616",
") 	c #090909",
"! 	c #515151",
"~ 	c #D0D0D0",
"{ 	c #E7E7E7",
"] 	c #DFDFDF",
"^ 	c #BDBDBD",
"/ 	c #AEAEAE",
"( 	c #868686",
"_ 	c #1C1C1C",
": 	c #030303",
"< 	c #5C5C5C",
"[ 	c #E1E1E1",
"} 	c #FFFFFF",
"| 	c #F4F4F4",
"1 	c #AFAFAF",
"2 	c #999999",
"3 	c #B6B6B6",
"4 	c #CACACA",
"5 	c #C2C2C2",
"6 	c #A3A3A3",
"7 	c #8B8B8B",
"8 	c #141414",
"9 	c #000000",
"0 	c #262626",
"a 	c #F7F7F7",
"b 	c #EAEAEA",
"c 	c #D2D2D2",
"d 	c #888888",
"e 	c #FDFDFD",
"f 	c #E9E9E9",
"g 	c #9D9D9D",
"h 	c #686868",
"i 	c #010101",
"j 	c #555555",
"k 	c #C9C9C9",
"l 	c #8D8D8D",
"m 	c #444444",
"n 	c #A9A9A9",
"o 	c #E2E2E2",
"p 	c #EEEEEE",
"q 	c #6F6F6F",
"r 	c #4F4F4F",
"s 	c #CCCCCC",
"t 	c #DDDDDD",
"u 	c #292929",
"v 	c #808080",
"w 	c #575757",
"x 	c #636363",
"y 	c #353535",
"z 	c #9F9F9F",
"A 	c #BBBBBB",
"B 	c #A8A8A8",
"C 	c #A4A4A4",
"D 	c #454545",
"E 	c #121212",
"F 	c #3B3B3B",
"G 	c #DADADA",
"H 	c #D3D38C",
"I 	c #E3E33E",
"J 	c #E9E826",
"K 	c #EEDA23",
"L 	c #EDCB3D",
"M 	c #EBBD7B",
"N 	c #A6A6A6",
"O 	c #484848",
"P 	c #2A2A2A",
"Q 	c #363636",
"R 	c #A7A7A7",
"S 	c #BDBDA8",
"T 	c #F5F51A",
"U 	c #FFF200",
"V 	c #FFDA00",
"W 	c #FEC205",
"X 	c #F3D7B6",
"Y 	c #D5D5D5",
"Z 	c #787878",
"` 	c #1A1A1A",
" .	c #080808",
"..	c #EFEFEF",
"+.	c #FCFCFC",
"@.	c #F6F6D2",
"#.	c #FCE40C",
"$.	c #FFCE00",
"%.	c #F2C98E",
"&.	c #E6E6E6",
"*.	c #9C9C9C",
"=.	c #020202",
"-.	c #FAFAFA",
";.	c #DEDEDE",
">.	c #F0E6AE",
",.	c #F0CF65",
"'.	c #D7D7D7",
").	c #CFCFCF",
"!.	c #050505",
"~.	c #0D0D0D",
"{.	c #F8F8F8",
"].	c #969696",
"^.	c #F9F9F9",
"/.	c #F5F5F5",
"(.	c #C8C8C8",
"_.	c #C0C0C0",
":.	c #717171",
"<.	c #070707",
"[.	c #101010",
"}.	c #ACACAC",
"|.	c #939393",
"1.	c #C7C7C7",
"2.	c #EDEDED",
"3.	c #B9B9B9",
"4.	c #B4B4B4",
"5.	c #232323",
"6.	c #0F0F0F",
"7.	c #0C0C0C",
"8.	c #181818",
"9.	c #282828",
"0.	c #FEFEFE",
"a.	c #5D5D5D",
"b.	c #E5E5E5",
"c.	c #848484",
"d.	c #737373",
"e.	c #ADADAD",
"f.	c #8C8C8C",
"g.	c #060606",
"h.	c #818181",
"i.	c #D4D4D4",
"j.	c #CECECE",
"k.	c #B5B5B5",
"l.	c #9A9A9A",
"m.	c #A5A5A5",
"n.	c #040404",
"o.	c #BEBEBE",
"p.	c #919191",
"q.	c #C6C6C6",
"r.	c #BFBFBF",
"s.	c #ABABAB",
"t.	c #747474",
"u.	c #696969",
"v.	c #B7B7B7",
"w.	c #B3B3B3",
"x.	c #8F8F8F",
"y.	c #A0A0A0",
"z.	c #0A0A0A",
"A.	c #2F2F2F",
"B.	c #D8D8D8",
"C.	c #909090",
"D.	c #838383",
"E.	c #AAAAAA",
"F.	c #707070",
"G.	c #B8B8B8",
"H.	c #434343",
"I.	c #858585",
"J.	c #959595",
"K.	c #8E8E8E",
"L.	c #676767",
"M.	c #BABABA",
"N.	c #656565",
"O.	c #B0B0B0",
"P.	c #6B6B6B",
"Q.	c #BCBCBC",
"R.	c #B2B2B2",
"S.	c #F2F2F2",
"T.	c #D6D6D6",
"U.	c #7D7D7D",
"V.	c #929292",
"W.	c #E4E4E4",
"X.	c #D9D9D9",
"Y.	c #757575",
"Z.	c #9B9B9B",
"`.	c #8A8A8A",
" +	c #9E9E9E",
".+	c #5A5A5A",
"++	c #F9C66E",
"@+	c #D5B479",
"#+	c #D7B67E",
"$+	c #D8B983",
"%+	c #C2A984",
"&+	c #B4B2B1",
"*+	c #A19B92",
"=+	c #C0A371",
"-+	c #D5B67C",
";+	c #D6B77C",
">+	c #F5CE88",
",+	c #FBCF80",
"'+	c #F6BC59",
")+	c #FFD68A",
"!+	c #FFE6B4",
"~+	c #FFE7B4",
"{+	c #FFE8B4",
"]+	c #FFE6B3",
"^+	c #F4CC81",
"/+	c #B5945B",
"(+	c #B48E49",
"_+	c #F7CC7A",
":+	c #FFE1A2",
"<+	c #FFE3A2",
"[+	c #FFE4A2",
"}+	c #FFD88B",
"|+	c #F3A30F",
"1+	c #FEC100",
"2+	c #FFC814",
"3+	c #FFCF22",
"4+	c #FFD327",
"5+	c #FFD527",
"6+	c #FFD427",
"7+	c #FFD227",
"8+	c #FFCD21",
"9+	c #FFC411",
"0+	c #EFB70B",
"a+	c #83817C",
"b+	c #898989",
"c+	c #757574",
"d+	c #EDB70B",
"e+	c #FFC607",
"f+	c #FFCC10",
"g+	c #FFD214",
"h+	c #FFD416",
"i+	c #FFD316",
"j+	c #FFD114",
"k+	c #FFCC11",
"l+	c #FFC409",
"m+	c #FFC300",
"n+	c #FBD000",
"o+	c #FFD700",
"p+	c #FFDD00",
"q+	c #FFE300",
"r+	c #FFE600",
"s+	c #FFE500",
"t+	c #FFE000",
"u+	c #FFD800",
"v+	c #FFD300",
"w+	c #FACA00",
"x+	c #FEDB00",
"y+	c #FFE900",
"z+	c #FFE800",
"A+	c #FFDB00",
"B+	c #FACD00",
"C+	c #FDE600",
"D+	c #FEF800",
"E+	c #FFF700",
"F+	c #FFED00",
"G+	c #FDE400",
"H+	c #FFEC00",
"I+	c #FEF400",
"J+	c #FEEC00",
"                                                                ",
"                                                                ",
"                          . + @ # $ % &                         ",
"                      * = - ; ; ; ; ; > , '                     ",
"                  ) ! ~ { ] ^ / / / / / / ( _                   ",
"                : < [ } } } | 1 2 2 3 4 5 6 7 8                 ",
"              9 0 1 } } } a b c d ] } } e f g h i               ",
"              9 j k } } a b l m n o } e p ] k q .               ",
"            9 9 r s } a b t < u v w e p ] ~ - x * 9             ",
"            9 9 y z a b t ~ A B 2 | p ] ~ - C D E 9             ",
"          9 9 9 8 F G t ~ H I J K L M ~ - N O P i 9 9           ",
"          9 9 9 i . Q R ; S T U V W X Y Z * `  .9 9 9           ",
"          9 9 9 9 9 Q ..+.} @.#.$.%.p &.] *.i 9 9 9 9           ",
"        9 =.: : : 0 -.} a ;.} >.,...&.;.'.).z : : : : 9         ",
"      9 !.) ) ) ~.p } {.].^.+./.p &.;.'.).(._.:.) ) =.<.9       ",
"    =.) [.[.[.[.}.} } |.l 1./.2.&.;.'.).1._.3.4.5.) 9 6.7.i     ",
"  9 =.<. .E 8.9.0.} 0.Z | a.2.b.;.'.s c.q d.6 e.f.& 7.: =.i 9   ",
"          g.* n } } } a.2.h.b.;.i.j.2 R k.l.# m.> 0 [.          ",
"          n.u p } } ^.o.p.q.r.s.t.u.v.3.w.x.:.y.2 x z.          ",
"          9 A.} } B.2 C.|.z z 5 D.7 v.e.D.p.y.2 |.( !.          ",
"            O } +.| 2.E.F.c.).G.}.k.E.H.I.x.f.|.J.K.            ",
"            L.| | 2.b.;.M.u.1 _.3.w.}.l :.N.= p.O.P.            ",
"            Q.R.S.&.;.T.U.O 3 3.w.}.N z 2 |.V./ y.D             ",
"              l.q.W.X.A U.Y.Y.w.}.N z 2 |.Z./ n !               ",
"                `.r.Y ).^ e.w.}.N z  +y.n s.6 .+                ",
"                ++@+#+$+%+&+G.4.O./ n *+=+-+;+>+,+'+            ",
"            )+!+~+{+{+~+]+^+/+m.R *.(+_+:+<+[+[+<+:+}+|+        ",
"          1+2+3+4+5+6+7+8+9+0+a+b+c+d+e+f+g+h+i+j+k+l+m+        ",
"          n+o+p+q+r+s+t+u+v+w+        x+p+s+y+z+q+A+o+B+        ",
"              C+U D+E+F+G+                H+I+U J+              ",
"                                                                ",
"                                                                "};
